<?xml version="1.0" standalone="no"?>
<!DOCTYPE svg PUBLIC "-//W3C//DTD SVG 20010904//EN"
 "http://www.w3.org/TR/2001/REC-SVG-20010904/DTD/svg10.dtd">
<svg version="1.0" xmlns="http://www.w3.org/2000/svg"
 width="500.000000pt" height="500.000000pt" viewBox="0 0 500.000000 500.000000"
 preserveAspectRatio="xMidYMid meet">
<metadata>
Created by potrace 1.14, written by Peter Selinger 2001-2017
</metadata>
<g transform="translate(0.000000,500.000000) scale(0.100000,-0.100000)"
fill="#000000" stroke="none">
<path d="M0 4058 l0 -204 29 -55 c16 -30 32 -70 36 -89 4 -19 11 -39 15 -45 4
-5 13 -27 19 -47 7 -20 19 -42 27 -48 7 -7 14 -23 14 -35 0 -13 7 -36 15 -51
8 -16 15 -36 15 -45 0 -8 7 -24 15 -35 8 -10 15 -27 15 -37 0 -10 6 -20 14
-23 8 -3 14 -20 14 -42 -1 -53 12 -95 34 -110 10 -7 18 -19 18 -26 0 -7 9 -21
20 -31 11 -10 20 -26 20 -36 0 -12 17 -28 50 -44 49 -25 61 -40 38 -47 -8 -3
-4 -12 10 -26 19 -19 23 -37 28 -115 8 -125 18 -161 49 -175 25 -12 33 -36 15
-47 -11 -7 -34 -55 -49 -106 -11 -33 -16 -37 -54 -42 -23 -3 -89 -1 -147 4
-58 5 -140 12 -182 16 l-78 6 0 -87 0 -86 83 -2 c45 -1 117 -2 160 -3 77 0 79
-1 107 -35 16 -19 25 -36 19 -38 -12 -5 -12 -59 1 -67 6 -4 -2 -18 -20 -35
-16 -15 -30 -35 -30 -43 0 -9 -9 -22 -21 -31 -19 -13 -20 -18 -9 -50 10 -30
16 -36 41 -36 33 0 35 6 13 38 -14 21 -14 22 5 22 12 0 26 -9 33 -20 19 -29
31 -24 25 10 -6 27 -4 30 28 36 19 3 35 11 35 16 0 6 13 7 31 3 22 -5 29 -4
25 4 -12 19 38 9 59 -12 20 -19 20 -19 -12 -12 -45 9 -41 0 9 -26 28 -14 37
-23 28 -29 -9 -6 -8 -10 6 -18 15 -9 16 -14 6 -36 -7 -17 -8 -26 -1 -26 6 0 8
-4 5 -8 -9 -16 25 -52 48 -52 13 0 29 -7 37 -16 9 -11 22 -14 43 -10 23 5 27
3 19 -5 -11 -11 -94 -8 -183 5 -19 4 -29 3 -22 0 17 -8 15 -24 -4 -24 -8 0
-12 -4 -9 -10 3 -5 2 -10 -4 -10 -18 0 -77 -62 -63 -67 27 -10 9 -23 -33 -23
-34 0 -47 -5 -55 -20 -7 -13 -21 -20 -38 -20 -16 0 -37 -7 -48 -15 -29 -22
-58 -18 -85 11 -40 43 -70 53 -131 47 -36 -4 -58 -2 -62 6 -4 6 -14 11 -22 11
-11 0 -14 -20 -14 -100 0 -55 4 -100 9 -100 5 0 21 4 35 10 21 7 26 6 26 -5 0
-10 10 -15 30 -15 30 0 41 14 18 23 -7 3 4 6 25 6 40 1 52 -21 20 -34 -17 -6
-17 -7 0 -20 23 -17 40 -72 24 -80 -26 -12 64 5 95 18 18 8 56 19 83 25 102
22 302 83 570 174 55 19 113 32 150 33 33 0 72 6 86 12 28 12 82 77 72 87 -4
3 4 6 16 6 27 0 78 28 86 47 10 27 -25 24 -62 -5 -21 -17 -48 -33 -61 -37 -15
-4 -22 -14 -22 -31 0 -20 -9 -29 -42 -44 -84 -38 -180 -18 -150 31 21 34 15
51 -15 45 -16 -3 -35 -2 -43 4 -11 7 -3 10 31 10 32 0 49 5 53 15 3 8 13 15
23 15 17 1 17 1 0 11 -9 5 -21 8 -26 5 -5 -3 -12 1 -15 10 -8 21 -8 24 5 24 6
0 17 6 25 14 7 8 19 16 26 19 22 8 -5 40 -43 51 l-34 9 40 8 c22 4 43 5 48 2
4 -2 7 1 7 6 0 6 -9 11 -21 11 -14 0 -19 5 -16 14 4 10 -2 16 -16 19 -18 4
-17 5 6 6 15 0 27 6 27 11 0 6 -11 8 -25 4 -15 -4 -32 -1 -40 6 -9 7 -38 13
-65 14 -49 1 -72 15 -27 17 l22 0 -23 12 c-18 8 -25 8 -32 -2 -5 -9 -10 -10
-14 -2 -4 6 3 15 18 21 16 6 24 15 20 24 -4 10 2 14 20 15 14 1 38 1 53 2 15
0 29 -4 31 -10 2 -6 22 -11 45 -12 23 0 51 -4 61 -8 20 -8 66 8 66 22 0 4 -11
7 -25 7 -15 0 -24 5 -23 13 2 7 -9 13 -27 15 -23 2 -27 0 -15 -7 12 -9 10 -11
-10 -11 -15 0 -31 -5 -37 -11 -7 -7 -15 -5 -27 6 -23 23 -20 43 7 47 12 2 -8
7 -45 12 -52 6 -71 13 -83 29 -12 17 -27 21 -82 24 -48 2 -61 0 -43 -6 14 -5
39 -9 57 -10 40 -1 64 -11 58 -22 -3 -4 -12 -6 -20 -2 -8 3 -15 0 -15 -6 0 -6
5 -11 10 -11 6 0 10 -4 10 -10 0 -5 -7 -7 -15 -4 -8 4 -15 11 -15 18 0 6 -16
16 -35 22 -30 9 -37 9 -44 -5 -8 -13 -13 -13 -33 -3 -40 23 -70 51 -63 62 4 6
23 7 48 4 23 -4 38 -3 34 2 -17 18 -117 30 -127 15 -5 -8 -14 -6 -31 8 l-24
20 29 1 c23 0 27 4 23 20 -6 24 16 59 27 42 4 -7 16 -12 27 -12 18 0 17 3 -8
25 -21 18 -24 24 -12 25 9 0 19 7 23 15 3 8 12 12 21 9 10 -4 15 0 15 10 0 11
9 16 28 16 l27 1 -24 19 c-18 16 -20 20 -7 20 9 0 28 -7 41 -16 23 -15 25 -15
25 0 0 10 9 16 25 16 14 0 25 4 25 10 0 15 31 27 88 35 l52 7 -1 -59 c-2 -67
16 -116 57 -157 69 -67 201 -103 316 -85 57 9 92 20 217 64 45 16 67 12 40 -8
-9 -7 -24 -27 -33 -45 -9 -18 -28 -37 -41 -42 -26 -10 -32 -50 -7 -50 7 0 11
4 8 9 -3 5 4 11 15 14 11 3 23 15 26 26 3 12 16 24 29 27 15 4 23 12 22 22 -2
9 5 18 16 20 26 5 44 24 38 40 -2 6 0 12 5 12 16 0 32 -22 26 -37 -4 -9 2 -16
16 -20 24 -6 29 -23 7 -23 -12 0 -14 -20 -13 -104 2 -87 -1 -107 -15 -123 -10
-11 -18 -26 -18 -35 0 -20 42 -58 98 -89 44 -24 57 -40 80 -99 5 -14 22 -52
37 -85 16 -33 27 -67 26 -75 -2 -8 -24 -35 -49 -59 -120 -113 -152 -145 -152
-154 0 -5 -7 -6 -16 -3 -11 4 -30 -7 -58 -34 -22 -22 -59 -49 -81 -61 -58 -30
-100 -79 -116 -133 -8 -28 -27 -59 -46 -77 -37 -33 -43 -35 -43 -13 0 11 -6
14 -22 8 -13 -4 -28 -7 -35 -7 -16 0 -203 -183 -203 -199 0 -16 -58 -50 -71
-43 -5 4 -2 17 7 30 12 18 12 24 2 28 -7 3 0 6 15 6 16 1 38 11 51 26 13 14
27 25 32 25 5 0 16 8 24 17 28 33 90 121 90 127 0 15 -29 4 -43 -17 -12 -16
-18 -19 -24 -10 -6 8 -13 9 -23 2 -13 -8 -13 -10 0 -19 13 -8 13 -10 -2 -10
-16 0 -68 -54 -68 -71 0 -12 -37 -49 -50 -49 -18 0 -11 15 25 56 19 21 35 44
35 50 0 7 7 15 16 18 9 4 15 9 12 11 -7 7 -68 -25 -68 -35 0 -5 -15 -8 -32 -7
-18 0 -42 -3 -53 -8 -11 -4 7 13 39 38 33 26 63 47 68 47 4 0 8 5 8 10 0 19
-32 10 -52 -15 -11 -14 -24 -25 -30 -25 -5 0 -23 -9 -39 -21 -16 -11 -29 -16
-29 -11 0 18 -31 22 -59 7 -16 -8 -32 -11 -36 -7 -5 4 -5 2 -2 -4 4 -6 -5 -16
-19 -23 -20 -9 -24 -9 -18 1 5 7 -5 3 -21 -10 -17 -12 -52 -40 -80 -60 -27
-21 -67 -51 -87 -66 -67 -50 -40 -20 41 48 44 36 88 74 98 84 10 10 32 28 48
39 38 27 45 68 12 78 -43 14 -51 14 -76 0 -39 -21 -88 -64 -73 -65 7 0 10 -5
7 -10 -4 -6 -11 -8 -16 -5 -11 8 -51 -19 -42 -28 3 -4 1 -7 -6 -7 -16 0 -73
-42 -131 -97 -24 -23 -46 -40 -48 -38 -3 2 22 29 54 60 32 30 52 55 45 55 -11
0 -11 3 -1 15 7 9 15 13 18 10 6 -6 82 65 82 76 0 9 -20 6 -37 -4 -6 -4 -18
-4 -27 -1 -9 3 -28 -2 -42 -11 -20 -13 -28 -14 -34 -5 -6 10 -15 10 -40 2 -21
-8 -38 -8 -50 -2 -9 5 -21 6 -25 2 -4 -4 -3 2 3 14 13 24 97 62 89 39 -4 -10
4 -13 32 -12 28 2 49 12 84 44 30 25 43 43 35 46 -17 6 -7 16 20 20 33 5 39
17 9 17 -15 0 -27 5 -27 10 0 6 12 10 28 10 29 0 60 15 51 24 -3 4 -27 3 -53
0 -34 -5 -46 -11 -42 -20 6 -15 6 -15 -44 -18 -42 -3 -112 -35 -118 -55 -7
-20 47 -5 75 21 12 11 28 18 35 15 10 -4 10 -6 1 -6 -7 -1 -13 -7 -13 -15 0
-8 -9 -18 -21 -21 -16 -5 -18 -9 -8 -21 7 -8 18 -13 26 -10 8 3 12 2 9 -3 -3
-4 -19 -8 -36 -9 -25 -1 -30 3 -26 15 5 12 2 14 -16 8 -13 -3 -44 -9 -70 -12
-26 -3 -45 -10 -42 -15 3 -5 15 -6 25 -3 18 6 19 5 7 -14 -24 -39 -64 -37 -52
2 6 21 6 21 -13 5 -11 -10 -24 -18 -29 -18 -16 -1 -51 -35 -58 -57 -4 -13 -1
-25 9 -33 8 -7 15 -18 15 -25 0 -6 9 -20 20 -30 13 -12 18 -25 14 -40 -4 -18
1 -24 28 -35 18 -7 35 -15 37 -16 2 -2 -10 -14 -25 -28 l-29 -25 26 -1 c15 0
38 9 52 20 35 28 47 25 17 -4 -82 -77 -108 -126 -67 -126 21 -1 21 -1 2 -12
-33 -18 -46 -39 -34 -55 8 -9 8 -17 0 -27 -9 -11 -9 -15 1 -19 7 -2 -8 -14
-34 -27 -51 -24 -55 -29 -36 -48 9 -9 8 -16 -5 -30 -9 -10 -17 -21 -17 -25 0
-14 58 -58 96 -73 44 -17 58 -49 17 -41 -12 2 -31 -1 -40 -8 -9 -7 -23 -11
-30 -8 -13 5 -18 -25 -13 -71 3 -28 40 -55 76 -56 52 0 64 -17 69 -98 2 -40 7
-78 11 -84 4 -7 3 -8 -4 -4 -7 4 -12 2 -12 -3 0 -6 5 -11 10 -11 6 0 10 -13
10 -29 0 -16 6 -31 15 -35 8 -3 15 -12 15 -21 0 -13 22 -15 178 -13 162 3 177
4 174 20 -2 12 4 18 15 18 38 1 77 60 39 60 -7 0 -19 7 -26 15 -13 15 -5 20
26 16 6 -1 15 13 19 31 7 32 7 33 15 8 4 -14 3 -31 -3 -37 -25 -33 40 -62 71
-31 18 18 15 27 -13 38 -14 5 -25 16 -25 24 0 10 6 13 15 10 32 -13 40 11 35
105 -3 50 -2 91 1 91 4 0 10 -38 14 -85 6 -75 9 -85 26 -85 10 0 22 0 27 -1
13 -1 14 33 0 43 -10 7 -10 11 0 15 7 3 12 23 12 51 0 43 3 48 29 60 25 11 34
11 57 -1 l28 -15 -22 -13 c-28 -17 -28 -26 1 -50 12 -10 16 -18 10 -19 -18 0
-16 -30 1 -30 8 0 18 5 21 10 10 17 20 11 31 -18 12 -32 83 -72 127 -72 15 0
27 -5 27 -11 0 -5 4 -8 9 -5 4 3 16 -3 26 -14 10 -11 24 -20 32 -20 8 0 40
-25 71 -55 l57 -55 582 0 c576 0 583 0 583 20 0 17 7 20 40 20 22 0 40 -4 40
-10 0 -5 22 -10 49 -10 28 0 53 -5 56 -10 9 -15 44 -12 62 6 9 8 22 13 29 10
7 -3 61 -6 119 -7 58 -1 105 -5 105 -10 0 -14 48 -11 53 4 4 10 6 10 6 0 1
-10 171 -13 815 -13 l814 0 -5 64 c-4 39 -1 78 8 102 13 39 20 133 19 252 0
37 18 62 45 62 l25 0 0 290 c0 187 -4 290 -10 290 -14 0 -13 27 2 32 21 7 0
36 -56 80 -65 50 -67 62 -3 18 25 -16 51 -30 58 -30 11 0 11 3 -1 11 -12 8
-12 12 -2 16 10 4 10 7 -2 17 -12 8 -13 21 -7 55 8 37 6 46 -13 65 -11 11 -21
23 -22 26 -4 22 -19 40 -35 40 -10 0 -19 5 -19 10 0 6 12 10 26 10 25 0 26 2
20 35 -6 28 -4 35 9 35 22 0 19 37 -4 45 -23 7 -34 44 -19 62 7 9 6 14 -7 19
-15 6 -15 9 6 20 13 7 20 14 14 14 -5 0 -3 5 5 10 13 9 13 10 0 10 -8 0 -26
10 -40 21 l-24 21 23 17 c20 16 22 21 13 54 -6 19 -7 38 -4 41 3 3 0 6 -6 6
-7 0 -12 13 -12 28 0 16 -3 32 -7 35 -4 4 -8 26 -10 50 -2 23 -10 47 -17 52
-11 9 -11 14 -2 28 10 12 10 32 4 77 -7 43 -6 65 2 74 6 8 12 28 15 45 2 18
22 69 44 114 22 45 45 105 52 132 6 28 16 54 20 59 5 6 9 253 9 550 l0 541
-62 28 c-68 31 -109 38 -115 21 -2 -7 8 -14 22 -18 40 -10 29 -26 -17 -25 -32
0 -38 2 -23 8 41 17 -56 31 -173 26 -69 -3 -113 -1 -117 5 -3 5 -1 10 5 10 6
0 8 5 5 10 -4 6 15 10 49 10 30 0 57 4 60 9 3 4 25 12 48 16 l43 8 -35 7 c-31
6 -28 8 23 9 39 1 64 6 74 17 11 11 25 14 42 9 14 -3 42 -9 61 -12 33 -4 34
-4 15 10 -31 22 -83 31 -167 28 -81 -3 -96 3 -53 19 14 5 25 16 25 24 0 14 46
32 65 26 21 -7 225 -7 225 0 0 14 -124 29 -165 21 -58 -11 -74 -3 -44 21 l24
20 -45 -6 -45 -6 25 20 c28 22 70 26 88 8 14 -14 95 -37 135 -38 21 0 27 5 27
21 0 18 -4 21 -28 16 -15 -3 -34 -2 -42 4 -11 6 -12 9 -2 9 28 0 -1 20 -31 21
-30 1 -30 2 8 9 22 5 52 6 68 3 30 -6 39 12 10 20 -17 4 -17 5 0 6 33 2 17 18
-25 25 -32 5 -39 9 -28 16 8 5 27 10 43 10 26 0 27 1 27 60 0 33 -2 60 -5 60
-20 0 -131 -66 -164 -98 -23 -21 -43 -36 -46 -34 -8 8 -65 -50 -65 -65 0 -11
5 -10 24 2 16 11 26 13 31 6 3 -6 -4 -15 -17 -20 -13 -5 -37 -23 -55 -40 -18
-17 -40 -31 -50 -31 -10 0 -14 -4 -8 -8 6 -4 12 -20 13 -36 3 -21 0 -27 -10
-24 -8 3 -23 -1 -33 -9 -20 -15 -20 -15 1 -11 13 3 21 0 21 -8 0 -7 -16 -15
-35 -19 -48 -9 -142 -57 -135 -68 3 -6 2 -7 -4 -4 -5 4 -19 -2 -29 -12 -11 -9
-24 -16 -29 -14 -13 4 -137 -103 -149 -129 -10 -20 -43 -20 -39 0 4 19 -24 2
-37 -24 -7 -13 -18 -24 -23 -24 -5 0 -6 -11 -3 -26 6 -21 -3 -35 -52 -87 -32
-34 -69 -73 -81 -87 l-23 -25 17 34 c9 18 39 54 66 80 39 36 48 51 43 68 -5
18 -9 20 -24 10 -10 -6 -17 -14 -14 -19 6 -10 -25 -58 -38 -58 -5 0 -6 5 -3
10 3 6 2 10 -2 10 -5 0 -15 -17 -22 -37 -7 -21 -30 -56 -51 -78 -20 -22 -45
-54 -55 -72 -14 -24 -22 -30 -35 -23 -12 6 -19 2 -29 -21 -7 -16 -17 -29 -22
-29 -6 0 -5 8 1 20 11 20 -3 30 -15 10 -3 -5 -12 -10 -18 -10 -7 0 12 22 41
49 28 26 52 51 52 55 0 4 9 16 20 28 11 12 20 27 20 32 -1 11 -89 -84 -90 -95
0 -4 -7 -9 -14 -12 -20 -8 -10 17 21 60 20 26 22 35 13 52 -7 14 -7 27 -1 39
7 14 6 18 -9 19 -10 1 -21 -5 -24 -13 -3 -9 -10 -12 -16 -9 -5 3 -21 -18 -34
-47 -21 -46 -24 -49 -23 -23 1 17 4 32 7 35 3 3 14 22 24 43 9 20 21 35 26 32
4 -3 6 3 3 14 -3 10 0 22 6 25 13 9 14 26 2 26 -5 0 -13 -10 -16 -22 -4 -13
-19 -33 -34 -45 -14 -12 -21 -22 -14 -23 8 0 7 -9 -3 -30 -9 -16 -13 -34 -10
-39 4 -5 2 -12 -4 -16 -5 -3 -10 -17 -10 -29 0 -27 -24 -51 -41 -41 -6 4 -9
20 -7 36 3 17 0 26 -6 22 -5 -4 -7 1 -3 10 3 10 2 17 -3 17 -5 0 -12 -10 -16
-22 l-7 -23 -8 24 c-5 12 -7 27 -4 31 3 5 6 25 7 45 1 22 6 35 15 35 7 0 13
-5 13 -11 0 -6 9 -8 20 -4 14 4 20 2 20 -9 0 -8 5 -18 12 -22 8 -5 9 0 6 14
-4 12 -3 22 0 22 13 0 54 69 48 79 -4 5 -22 15 -41 21 -23 8 -35 18 -35 30 0
21 -20 39 -20 18 -1 -7 -11 0 -24 16 -22 27 -24 27 -35 10 -10 -18 -10 -18
-11 4 0 27 -16 29 -30 2 -13 -24 -36 -26 -44 -4 -3 8 -10 13 -16 9 -5 -3 -12
7 -16 22 -10 45 -12 49 -19 27 -9 -29 -75 -31 -68 -3 6 23 -46 30 -65 9 -12
-13 -13 -12 -9 8 7 29 1 28 -28 -4 -14 -15 -25 -21 -25 -14 0 7 -6 10 -14 7
-8 -3 -17 2 -21 11 -6 16 -7 16 -16 0 -6 -10 -17 -18 -24 -18 -8 0 -15 -7 -15
-15 0 -8 -4 -15 -10 -15 -5 0 -10 5 -10 10 0 17 -18 11 -45 -15 -14 -14 -25
-34 -25 -43 1 -13 7 -10 24 12 25 30 56 31 56 1 0 -14 4 -13 26 4 29 23 45 20
38 -7 -3 -9 2 -26 10 -37 15 -19 15 -19 16 6 0 15 7 32 15 39 11 9 15 9 15 1
0 -7 4 -10 9 -7 5 4 12 0 15 -6 5 -10 7 -10 12 0 3 6 10 12 16 12 5 0 0 -12
-11 -26 -16 -20 -18 -28 -8 -39 10 -11 13 -10 15 5 2 10 9 21 16 23 10 4 12
-8 10 -45 -1 -27 -5 -52 -8 -55 -3 -4 -6 -1 -6 7 0 10 -3 10 -15 0 -23 -19
-19 -43 5 -35 11 4 20 2 20 -4 0 -6 -9 -11 -19 -11 -13 0 -23 -11 -31 -35 -6
-19 -16 -35 -21 -35 -5 0 -9 -5 -9 -10 0 -6 8 -5 20 2 11 7 20 21 20 32 0 15
3 16 15 6 12 -10 10 -16 -15 -43 -17 -18 -30 -36 -30 -42 1 -18 60 58 89 115
31 60 34 88 12 106 -9 7 -11 18 -6 35 l8 24 8 -23 c5 -14 13 -20 20 -16 9 5
10 -8 7 -47 -3 -29 -11 -55 -17 -57 -18 -6 -63 -104 -52 -115 5 -5 7 -16 4
-23 -5 -13 9 -19 32 -14 16 3 -47 -60 -77 -78 -16 -9 -28 -22 -28 -29 0 -7 -5
-13 -11 -13 -5 0 -7 -5 -4 -10 4 -6 1 -18 -7 -27 -15 -19 -13 -18 55 25 43 26
63 25 22 -2 -27 -18 -24 -41 4 -32 12 5 11 2 -3 -9 -11 -8 -27 -15 -36 -15 -9
0 -30 -12 -46 -26 l-29 -26 48 6 c30 3 47 1 47 -6 0 -6 10 -4 24 5 26 18 38
13 28 -11 -4 -12 1 -11 24 5 31 22 52 23 216 9 37 -3 48 0 51 13 3 14 5 13 12
-3 6 -13 4 -21 -3 -24 -19 -6 -14 -24 6 -19 9 3 34 8 54 12 31 5 37 3 32 -10
-8 -19 10 -20 26 -1 6 8 18 12 27 9 22 -8 106 84 120 132 l12 37 -24 -22 c-13
-12 -29 -35 -35 -51 -8 -17 -20 -29 -31 -29 -25 0 -24 28 1 60 11 14 20 31 20
38 0 7 11 30 25 52 14 22 25 44 25 49 0 5 5 13 11 17 9 5 10 -4 5 -31 -4 -21
-3 -35 2 -31 5 3 14 -5 21 -17 9 -17 8 -32 -3 -72 -9 -27 -14 -51 -12 -52 2
-2 16 1 31 7 23 9 21 4 -19 -35 -52 -50 -61 -54 -53 -25 3 13 0 20 -8 20 -8 0
-17 -9 -20 -20 -3 -11 -11 -20 -16 -20 -5 0 -9 -7 -9 -15 0 -10 -9 -14 -30
-11 -16 2 -27 0 -24 -5 3 -5 -14 -12 -36 -15 -41 -7 -70 -26 -70 -46 0 -5 7
-7 16 -4 9 3 19 6 22 6 4 0 0 5 -8 11 -11 8 -6 9 23 5 20 -2 35 -1 32 4 -3 5
3 8 14 7 15 -1 17 -4 9 -14 -8 -10 -6 -13 6 -13 19 0 21 -16 4 -24 -7 -4 -3
-4 10 -2 12 2 22 0 22 -5 0 -5 -9 -9 -20 -9 -11 0 -20 -4 -20 -10 0 -5 -9 -10
-20 -10 -11 0 -20 -4 -20 -9 0 -6 13 -5 33 1 17 6 48 13 67 15 19 3 40 10 47
15 7 6 14 5 18 -2 3 -5 -1 -10 -9 -10 -9 0 -16 -4 -16 -10 0 -5 7 -7 16 -3 9
3 20 0 25 -8 7 -11 9 -11 9 4 0 9 4 17 9 17 5 0 8 -8 7 -17 -4 -24 -71 -47
-94 -33 -14 9 -12 10 8 5 l25 -7 -22 16 c-17 13 -27 14 -50 5 -26 -10 -26 -12
-8 -19 18 -6 17 -8 -10 -18 -28 -11 -27 -12 20 -8 28 2 44 1 38 -1 -24 -9 15
-36 42 -29 15 4 25 2 25 -4 0 -6 -5 -8 -10 -5 -5 3 -10 1 -10 -4 0 -6 -10 -12
-22 -12 -20 -1 -20 -2 -4 -6 14 -4 16 -7 6 -13 -8 -5 2 -10 29 -15 22 -4 41
-10 41 -15 0 -4 -10 -6 -22 -3 -19 4 -20 3 -8 -6 12 -8 8 -11 -18 -11 -18 0
-31 4 -28 9 5 8 -39 21 -72 21 -12 0 -11 -4 6 -16 12 -8 22 -20 22 -25 0 -6
-10 -3 -22 5 -12 9 -32 16 -44 16 -12 0 -24 7 -28 15 -3 8 -12 15 -21 15 -8 0
-15 5 -15 10 0 6 -7 10 -15 10 -13 0 -19 11 -16 32 0 3 -23 9 -51 13 -29 4
-68 14 -87 21 l-36 14 35 -5 c26 -4 32 -3 23 6 -7 7 -43 15 -82 18 -38 4 -74
10 -78 15 -4 5 2 5 14 2 14 -5 23 -3 23 3 0 6 8 11 18 12 27 1 -38 28 -70 29
-14 0 -39 7 -55 16 -28 16 -31 16 -97 -15 -37 -17 -72 -31 -77 -31 -5 0 -9 -4
-9 -9 0 -4 -12 -8 -27 -8 -48 0 -91 -10 -115 -25 -13 -9 -37 -18 -54 -22 -33
-7 -79 -47 -130 -112 -47 -60 -124 -174 -124 -185 0 -5 -11 -9 -24 -9 -19 0
-26 -7 -31 -30 -8 -34 -11 -36 -32 -15 -17 18 -34 16 -41 -5 -3 -7 0 -10 5 -7
6 4 9 -18 7 -56 -2 -70 12 -97 55 -97 25 -1 25 -1 7 -15 -17 -13 -17 -15 -3
-21 9 -3 14 -10 11 -15 -3 -5 0 -23 7 -39 13 -27 16 -29 56 -23 26 3 43 2 43
-4 0 -6 11 -8 24 -6 16 3 23 10 19 19 -3 9 -13 12 -23 9 -20 -6 -50 3 -50 16
0 5 11 7 25 3 29 -7 45 18 28 45 -7 12 -8 23 -1 35 7 12 7 21 -1 29 -6 6 -11
19 -11 28 0 9 -7 19 -15 23 -8 3 -15 9 -15 14 0 12 109 12 116 0 3 -4 10 -6
15 -2 6 3 18 0 27 -8 32 -25 80 -48 168 -79 88 -31 91 -31 229 -26 151 6 270
30 334 68 46 28 111 89 111 105 0 7 6 19 13 26 7 7 16 21 20 31 8 23 44 22 84
-3 19 -11 40 -17 50 -13 13 5 15 3 10 -11 -6 -15 -3 -18 17 -14 15 3 27 0 30
-8 3 -7 14 -10 25 -7 13 3 21 1 21 -7 0 -7 8 -9 19 -5 16 5 18 2 14 -16 -5
-19 -3 -21 26 -14 30 6 31 6 21 -19 -9 -24 -7 -26 16 -26 14 0 23 4 20 9 -6 9
54 25 62 16 3 -3 -3 -5 -13 -5 -14 0 -15 -3 -5 -15 11 -13 7 -15 -26 -17 -22
-1 -57 -1 -79 -1 -22 1 -30 -1 -17 -4 12 -2 22 -9 22 -14 0 -5 10 -9 23 -9 16
0 18 -3 8 -9 -9 -6 -10 -11 -2 -15 6 -4 15 -4 21 -1 6 3 10 2 10 -3 0 -5 -22
-12 -50 -16 -27 -4 -50 -11 -50 -15 0 -5 -27 -12 -60 -16 -32 -4 -64 -13 -71
-21 -8 -9 -37 -13 -103 -13 -100 0 -149 -8 -140 -22 3 -6 28 -7 57 -3 29 4 61
6 72 5 11 -1 32 -2 48 -3 15 0 27 -5 27 -9 0 -11 8 -10 -107 -13 -51 -1 -96
-6 -100 -9 -3 -4 1 -7 10 -7 9 0 17 -4 17 -9 0 -5 -19 -2 -42 6 -32 11 -48 12
-60 4 -21 -13 -31 -14 -24 -3 7 12 -136 4 -148 -8 -7 -7 5 -10 32 -10 23 0 42
-4 42 -10 0 -5 10 -10 23 -9 12 0 16 3 10 6 -30 12 -8 21 52 21 36 0 65 -2 65
-4 0 -2 -11 -9 -25 -14 -36 -14 -31 -27 16 -34 29 -5 44 -2 55 9 19 19 25 19
18 0 -5 -11 -2 -13 10 -9 9 3 16 1 16 -5 0 -6 -5 -11 -11 -11 -5 0 -7 -4 -4
-10 3 -5 -1 -10 -9 -10 -9 0 -16 3 -16 8 0 4 -12 8 -27 9 -16 1 -48 4 -73 8
-44 6 -44 6 -20 -9 24 -15 24 -15 3 -16 -12 0 -25 5 -28 10 -3 6 -16 10 -28
10 -19 -1 -20 -2 -7 -13 8 -7 14 -22 12 -34 -3 -20 -7 -21 -60 -16 -66 6 -81
15 -62 38 9 11 25 15 47 13 18 -2 33 0 33 4 0 4 -11 8 -24 8 -14 0 -28 5 -31
10 -11 17 -33 11 -67 -19 -18 -16 -42 -31 -53 -33 -17 -4 -15 -7 15 -26 29
-18 44 -21 87 -15 39 4 53 2 53 -7 0 -9 -11 -11 -37 -7 -21 3 -32 3 -25 0 17
-7 15 -23 -3 -23 -8 0 -15 5 -15 10 0 6 -8 10 -18 10 -10 0 -26 6 -37 13 -13
8 -37 10 -70 6 -50 -6 -50 -6 -10 -8 22 -1 49 -6 60 -10 16 -7 13 -9 -18 -15
-49 -9 -38 -28 12 -20 28 5 39 2 44 -9 3 -8 0 -14 -6 -14 -58 1 -62 -15 -9
-36 20 -9 31 -16 23 -16 -7 -1 -11 -7 -8 -15 4 -10 -2 -16 -16 -19 -18 -3 -17
-5 6 -6 17 0 26 -5 22 -12 -4 -5 1 -19 11 -30 17 -18 16 -19 -15 -19 -28 0
-31 -2 -21 -19 13 -25 2 -54 -17 -47 -8 3 -29 6 -46 6 -21 0 -42 10 -62 28
-40 38 -109 49 -137 22 -11 -10 -17 -23 -13 -29 10 -16 25 -13 25 5 0 11 5 14
16 10 9 -3 22 -6 30 -6 20 0 17 -18 -3 -23 -12 -3 -9 -5 8 -6 14 0 30 4 37 11
9 9 12 8 12 -5 0 -14 -9 -17 -46 -17 -43 0 -104 25 -104 42 0 4 -27 13 -60 20
-51 10 -60 15 -60 34 0 25 -61 84 -88 85 -27 1 -55 6 -84 14 -25 6 -28 5 -28
-18 0 -22 6 -27 34 -33 19 -3 43 -15 53 -26 10 -11 50 -35 90 -53 39 -18 78
-44 87 -57 21 -32 43 -42 146 -63 47 -9 103 -25 125 -35 22 -9 51 -21 65 -25
42 -13 426 -205 411 -205 -8 0 -46 16 -85 36 -114 59 -270 114 -308 109 -18
-3 -27 -2 -20 1 8 4 -7 17 -40 35 -72 39 -80 36 -24 -8 33 -26 43 -39 34 -44
-9 -6 -7 -8 7 -7 11 0 49 -9 84 -21 35 -11 74 -21 87 -21 12 0 25 -4 29 -9 3
-5 20 -13 37 -16 18 -4 76 -25 129 -46 53 -22 102 -39 108 -39 7 0 69 -34 139
-75 70 -41 119 -75 110 -75 -9 0 -20 5 -23 11 -4 5 -12 8 -18 6 -6 -2 -21 5
-32 16 -25 24 -173 99 -262 133 -108 41 -303 104 -323 104 -10 0 -22 5 -25 10
-8 13 -35 13 -35 0 0 -12 61 -45 77 -42 6 1 14 -2 18 -8 8 -13 -6 -12 -82 4
-52 10 -63 10 -63 0 0 -23 48 -46 92 -46 44 1 78 -12 78 -29 0 -6 -7 -3 -16 5
-17 18 -54 22 -54 6 0 -5 3 -10 8 -10 4 0 27 -20 52 -43 25 -23 76 -60 113
-81 37 -22 75 -46 84 -55 10 -9 38 -32 63 -51 46 -35 93 -80 84 -80 -3 0 -25
13 -48 30 -24 16 -49 30 -57 32 -7 2 -22 11 -33 20 -18 16 -198 108 -211 108
-15 0 8 -19 40 -34 20 -10 33 -21 30 -26 -6 -10 4 -21 84 -89 28 -24 49 -46
47 -49 -6 -5 -90 58 -141 106 -46 44 -90 64 -125 59 -33 -5 -36 -23 -5 -31 19
-5 25 -12 21 -22 -4 -12 -1 -14 14 -9 11 4 20 2 20 -4 0 -6 -5 -11 -12 -11 -6
0 -3 -9 7 -20 10 -11 13 -20 7 -20 -6 0 -14 5 -17 10 -6 10 -79 50 -91 50 -4
0 24 -29 61 -65 38 -36 64 -65 59 -65 -5 0 -25 15 -44 33 -52 49 -98 79 -111
71 -6 -3 -15 -1 -19 6 -4 7 -13 10 -19 6 -14 -9 14 -53 40 -61 10 -4 19 -11
19 -16 0 -17 -17 -9 -48 21 -18 17 -35 30 -39 30 -15 0 -113 99 -113 114 0 21
-56 83 -100 111 -19 12 -51 25 -70 28 -19 3 -55 10 -80 16 -69 16 -151 14
-144 -3 3 -9 -6 -17 -25 -24 -24 -8 -31 -8 -35 5 -5 11 -15 13 -44 8 -34 -5
-41 -3 -55 19 -19 28 -5 40 26 24 26 -14 40 -6 25 14 -7 10 -32 21 -56 27 -40
9 -44 8 -54 -15 -9 -18 -14 -21 -25 -13 -7 6 -13 17 -13 25 0 7 -9 15 -19 19
-11 3 -35 20 -53 37 -18 17 -43 32 -55 34 -21 2 -93 68 -93 84 0 4 7 10 15 14
8 3 15 10 15 16 0 15 -26 12 -40 -5 -24 -29 -40 -18 -40 31 0 43 -16 74 -38
74 -20 0 -22 34 -3 54 11 12 20 24 20 29 0 4 9 27 19 50 24 54 69 92 119 101
54 9 135 56 150 87 11 22 10 32 -2 55 -23 45 -18 66 26 107 31 30 46 37 64 33
23 -6 23 -5 9 21 -19 37 -18 43 6 43 17 0 20 6 18 33 -1 18 1 38 5 43 3 6 1
19 -7 29 -9 13 -19 15 -37 10 -30 -10 -87 -11 -96 -2 -12 13 -25 7 -19 -8 7
-20 -20 -31 -38 -15 -12 9 -17 7 -25 -9 -6 -11 -11 -26 -11 -35 0 -18 -20 -32
-29 -20 -3 5 -19 14 -36 19 -24 9 -33 7 -52 -11 -13 -12 -38 -24 -56 -27 -18
-3 -57 -13 -88 -22 l-57 -18 -34 27 c-19 14 -49 31 -66 37 -33 11 -40 23 -22
34 22 14 9 26 -22 20 -26 -6 -30 -5 -25 9 5 11 1 16 -13 16 -10 0 -23 8 -29
17 -5 10 -13 14 -17 10 -5 -4 -3 -16 3 -26 11 -17 9 -19 -23 -18 -21 1 -34 6
-34 14 0 19 4 28 12 26 3 -1 4 23 1 55 -6 66 -6 61 3 133 4 38 3 59 -5 63 -6
4 -11 15 -11 25 0 17 -61 91 -75 91 -3 0 -43 18 -88 39 -116 55 -153 71 -166
71 -17 0 -91 39 -91 48 0 4 -15 16 -32 26 l-33 19 25 -28 c25 -28 12 -26 -22
3 -9 8 -23 12 -30 10 -7 -3 6 -18 31 -36 46 -34 41 -43 -10 -16 -17 8 -38 13
-47 11 -14 -3 -12 -6 8 -15 23 -10 20 -11 -25 -12 l-50 0 35 -18 35 -17 -39
-6 c-21 -3 -41 -11 -45 -16 -3 -6 -15 -12 -25 -14 -10 -2 -24 -13 -30 -24 -6
-11 -14 -22 -17 -25 -3 -3 -8 -13 -12 -22 -3 -9 -25 -26 -48 -38 -48 -23 -52
-24 -45 -11 4 5 -2 7 -12 4 -11 -2 -26 3 -35 12 -14 13 -21 14 -39 4 -13 -6
-20 -8 -16 -4 4 4 -4 19 -18 34 -13 14 -27 34 -30 44 -5 15 -7 15 -20 3 -17
-18 -18 -33 -1 -39 6 -2 9 -8 5 -12 -4 -4 -25 10 -47 32 -30 29 -38 42 -30 50
6 6 19 9 28 5 13 -5 14 -3 4 10 -15 18 -7 29 15 21 11 -5 14 -2 10 8 -4 11 2
15 26 14 17 0 37 -4 45 -9 9 -6 12 -5 9 5 -3 8 -15 15 -27 15 -23 1 -52 32
-47 49 1 6 17 9 35 7 17 -2 51 0 73 3 39 7 41 8 22 22 -15 11 -16 15 -5 22 11
7 11 9 0 14 -9 4 -8 6 5 6 12 1 16 6 12 16 -8 21 17 29 43 16 28 -16 36 4 9
23 -12 9 -32 16 -43 17 -14 0 -16 2 -5 6 8 4 20 12 27 19 10 9 3 15 -33 25
-27 8 -57 26 -71 43 -23 28 -25 28 -71 16 -26 -7 -54 -19 -62 -25 -49 -41
-165 -68 -144 -33 5 8 0 9 -17 4 -49 -16 -79 -18 -79 -7 0 6 -10 11 -22 11
-37 0 -52 14 -33 30 22 18 19 28 -12 32 -24 3 -28 8 -31 40 -3 33 -1 37 32 48
20 6 40 9 45 6 5 -3 15 1 22 10 12 14 61 40 114 59 18 7 17 8 -10 16 -50 14
-138 13 -175 -3 -19 -9 -46 -27 -59 -42 -26 -28 -77 -37 -68 -12 4 10 -2 16
-15 18 -12 2 -23 8 -25 14 -6 18 98 120 144 140 53 24 54 32 6 31 -21 -1 -50
2 -64 7 -23 7 -34 1 -80 -43 -52 -50 -72 -54 -49 -11 10 19 8 24 -9 37 -31 21
-26 36 24 72 50 36 55 46 24 54 -16 4 -19 9 -11 24 17 30 52 63 67 63 8 0 15
5 15 11 0 7 -28 8 -87 3 l-87 -7 37 45 c27 33 53 51 97 69 41 16 60 29 60 41
0 19 3 20 -119 -34 -44 -19 -44 -19 -38 1 3 15 -3 27 -21 40 -39 29 -24 51 56
83 40 16 41 26 2 39 -16 6 -30 15 -30 19 0 5 -12 13 -27 18 l-28 10 25 2 c14
1 30 1 35 0 16 -5 107 -9 103 -5 -11 11 -103 55 -114 55 -17 0 -18 12 -2 28 9
9 9 12 0 12 -7 0 -29 11 -50 24 -20 13 -52 27 -69 31 l-33 7 0 -204z m4880
-112 c0 -3 -4 -8 -10 -11 -5 -3 -10 -1 -10 4 0 6 5 11 10 11 6 0 10 -2 10 -4z
m-262 -203 c-10 -2 -26 -2 -35 0 -10 3 -2 5 17 5 19 0 27 -2 18 -5z m-196
-105 c2 -6 22 -11 44 -11 21 1 33 -1 27 -4 -25 -10 -12 -23 22 -23 26 0 35 4
35 16 0 14 7 15 38 10 20 -3 70 -11 111 -16 41 -5 80 -15 87 -21 7 -5 39 -12
71 -14 32 -2 71 -9 86 -14 29 -11 32 -32 6 -39 -12 -3 -12 -2 0 6 24 17 -60
34 -132 26 -43 -4 -90 -1 -149 11 -51 10 -116 15 -157 13 -43 -2 -69 0 -68 7
1 5 -16 11 -38 13 -32 3 -37 1 -28 -9 10 -10 8 -16 -9 -31 -12 -10 -26 -18
-33 -18 -6 0 -21 -11 -33 -25 -19 -22 -17 -37 2 -18 4 4 28 6 54 4 45 -2 46
-2 27 14 -19 16 -17 16 30 9 58 -8 79 -8 120 0 28 6 28 6 6 -4 -31 -14 -20
-23 54 -46 33 -10 52 -20 43 -22 -31 -6 -20 -17 64 -63 44 -25 88 -56 97 -69
15 -23 14 -23 -23 5 -30 23 -51 30 -85 31 -51 0 -144 32 -135 45 14 24 -102
39 -124 17 -22 -22 -12 -28 46 -29 43 0 70 -7 112 -29 30 -16 72 -37 93 -46
58 -27 43 -47 -18 -24 -24 9 -26 8 -20 -12 6 -21 5 -22 -8 -6 -15 19 -122 57
-175 62 -38 4 -56 16 -24 16 29 0 28 16 0 25 -13 4 -26 8 -30 10 -5 1 -11 3
-14 4 -4 0 -1 8 6 16 10 12 7 15 -14 21 -14 3 -48 4 -75 2 -37 -2 -47 0 -40 9
7 7 6 14 -1 18 -5 3 -13 -1 -16 -9 -3 -9 -11 -16 -18 -16 -6 0 -20 -7 -30 -15
-19 -14 -18 -15 4 -23 23 -9 23 -9 -10 -25 -24 -12 -37 -14 -46 -6 -9 7 -19 7
-33 -1 -30 -15 -27 6 3 25 13 8 30 13 38 10 18 -7 32 31 14 39 -6 2 -1 8 10
11 12 4 31 20 43 36 12 16 35 36 51 44 19 10 27 20 24 30 -5 11 1 15 19 15 14
0 29 5 32 10 3 6 -1 10 -9 10 -26 0 -18 14 22 36 45 26 49 27 54 12z m-1035
-4 c-3 -4 -2 -14 3 -23 5 -11 5 -23 -2 -32 -8 -11 -9 -11 -4 3 3 10 1 20 -4
23 -14 9 -12 35 2 35 6 0 8 -3 5 -6z m70 -99 c-4 -8 -11 -15 -17 -15 -6 0 -6
7 2 20 14 22 24 19 15 -5z m1178 8 c18 -14 18 -15 2 -9 -10 3 -23 6 -28 6 -5
0 -9 5 -9 10 0 14 12 12 35 -7z m-1120 -13 c3 -5 1 -10 -5 -10 -8 0 -11 -21
-9 -62 2 -52 0 -64 -14 -66 -14 -3 -16 6 -12 70 2 40 4 74 4 76 2 7 31 1 36
-8z m1292 -50 c44 -22 88 -40 96 -40 8 0 20 -7 27 -15 16 -19 15 -19 -56 4
-60 20 -149 59 -194 87 l-25 16 35 -6 c19 -4 72 -24 117 -46z m-1250 -10 c0
-30 13 -53 20 -35 2 6 8 17 13 25 9 13 11 13 20 0 12 -19 13 -43 1 -35 -20 12
-19 -13 1 -34 19 -22 20 -25 5 -55 -12 -23 -16 -26 -16 -12 -1 20 -1 20 -16 0
-13 -17 -14 -16 -5 16 13 45 13 47 -3 53 -10 4 -12 -3 -9 -24 3 -18 0 -29 -7
-29 -7 0 -10 4 -6 9 3 5 0 13 -6 17 -9 5 -10 -2 -6 -25 4 -20 3 -30 -3 -26 -6
4 -10 -9 -10 -31 0 -21 -3 -34 -7 -30 -4 3 -13 -4 -20 -16 -12 -21 -12 -20 -6
12 3 19 12 44 20 55 7 11 13 26 13 33 0 12 -3 12 -17 1 -14 -13 -15 -12 -5 6
6 11 13 33 17 48 3 17 10 25 17 21 8 -5 9 2 4 22 -9 33 -9 34 -7 52 2 26 18
11 18 -18z m1123 20 c13 -9 13 -10 0 -9 -8 0 -24 4 -35 9 l-20 9 20 0 c11 0
27 -4 35 -9z m-1273 -52 c-3 -8 -6 -5 -6 6 -1 11 2 17 5 13 3 -3 4 -12 1 -19z
m936 -35 c-7 -2 -13 -11 -13 -19 0 -9 -11 -14 -31 -14 -17 0 -28 4 -24 10 3 6
15 10 26 10 10 0 19 5 19 10 0 6 8 10 18 9 10 0 12 -3 5 -6z m-502 -86 c-4
-12 -20 -28 -35 -35 -15 -8 -31 -24 -36 -37 -5 -13 -14 -26 -19 -30 -22 -13
-10 19 25 73 27 40 39 51 45 41 7 -11 9 -10 9 4 0 10 4 16 10 12 5 -3 6 -15 1
-28z m282 16 c-22 -8 -14 -25 10 -21 12 2 21 9 19 16 -1 8 2 11 7 7 14 -8 -2
-47 -25 -60 -30 -16 -44 -33 -44 -49 0 -9 -8 -16 -20 -16 -29 0 -25 24 10 53
29 25 39 47 22 47 -4 0 -13 -5 -20 -12 -18 -18 -14 3 5 24 9 10 23 18 32 17
10 0 12 -2 4 -6z m-460 -91 c-5 -37 -13 -49 -49 -75 -50 -37 -55 -50 -16 -42
23 5 24 4 9 -5 -9 -6 -15 -15 -12 -19 2 -5 -4 -16 -15 -26 -21 -19 -28 -7 -8
13 19 19 -1 14 -33 -9 -16 -11 -37 -19 -47 -16 -13 3 -12 6 10 15 14 6 29 15
32 21 4 6 -10 3 -30 -5 -20 -8 -39 -13 -41 -10 -3 3 14 14 39 25 64 27 136 82
143 109 3 12 7 34 10 48 9 41 14 23 8 -24z m879 -20 c59 -29 112 -52 118 -52
5 0 10 -4 10 -10 0 -14 -11 -13 -54 5 -22 9 -36 11 -36 5 0 -6 12 -16 28 -22
31 -14 94 -59 89 -64 -2 -2 -25 8 -52 21 -26 14 -54 25 -61 25 -7 0 -17 7 -22
15 -4 9 -26 18 -48 21 -27 4 -35 3 -25 -4 8 -6 20 -8 28 -5 7 3 13 0 13 -6 0
-7 -6 -14 -13 -17 -20 -7 -87 -11 -87 -4 0 3 -17 4 -37 2 -31 -4 -34 -6 -18
-12 11 -5 29 -17 41 -28 12 -12 40 -22 68 -24 51 -6 61 -11 51 -28 -4 -7 -19
-9 -36 -5 -29 7 -140 -13 -149 -26 -3 -4 -26 -8 -52 -10 -36 -3 -44 -1 -36 8
6 7 19 13 29 13 10 0 21 5 24 10 4 6 -6 10 -22 10 l-28 1 35 19 c43 23 25 26
-29 4 -27 -10 -38 -20 -34 -30 3 -8 0 -14 -6 -14 -6 0 -11 5 -11 10 0 25 -45
6 -86 -37 -38 -39 -43 -42 -34 -19 13 36 13 36 -7 29 -16 -6 -16 -5 -4 11 9
11 17 13 21 6 9 -15 37 -2 43 21 3 11 14 19 26 19 12 0 21 6 21 14 0 9 -7 12
-20 9 -34 -9 -25 32 9 47 16 6 32 19 36 27 5 14 7 14 19 -2 9 -13 15 -15 20
-6 5 7 0 18 -10 26 -17 13 -17 16 -4 25 12 8 11 10 -6 10 -12 0 -27 -7 -34
-15 -16 -19 -40 -20 -40 -1 0 21 22 35 78 47 29 6 52 14 52 19 0 12 38 19 90
16 30 -2 82 -21 152 -54z m-522 34 c0 -2 -8 -10 -17 -17 -16 -13 -17 -12 -4 4
13 16 21 21 21 13z m118 -8 c-3 -7 -13 -15 -24 -17 -16 -3 -17 -1 -5 13 16 19
34 21 29 4z m698 -20 c4 -6 -2 -8 -15 -4 -11 3 -30 9 -41 12 -11 3 -18 9 -15
14 6 10 62 -7 71 -22z m-1276 -7 c0 -5 -7 -11 -14 -14 -10 -4 -13 -1 -9 9 6
15 23 19 23 5z m1145 -1 c3 -5 -1 -10 -10 -10 -9 0 -13 5 -10 10 3 6 8 10 10
10 2 0 7 -4 10 -10z m-675 -4 c0 -3 -4 -8 -10 -11 -5 -3 -10 -1 -10 4 0 6 5
11 10 11 6 0 10 -2 10 -4z m-611 -30 c-2 -2 -20 -11 -39 -20 l-35 -17 24 21
c13 11 30 20 39 20 8 0 13 -2 11 -4z m141 -15 c0 -10 -39 -41 -52 -41 -4 0 2
11 14 25 22 26 38 32 38 16z m314 -23 c-8 -28 -32 -56 -59 -70 -12 -7 -8 2 12
22 18 19 35 42 39 52 3 10 8 18 10 18 3 0 2 -10 -2 -22z m229 5 c-4 -10 -13
-28 -21 -41 -8 -12 -12 -25 -8 -29 7 -7 -12 -33 -26 -33 -5 0 -4 8 1 19 6 10
8 21 5 24 -5 5 45 77 53 77 1 0 -1 -8 -4 -17z m-616 -9 c-3 -3 -12 -4 -19 -1
-8 3 -5 6 6 6 11 1 17 -2 13 -5z m343 -14 c0 -5 -4 -10 -10 -10 -5 0 -10 5
-10 10 0 6 5 10 10 10 6 0 10 -4 10 -10z m-3072 -6 c12 -4 22 -10 22 -14 0
-10 -94 -50 -118 -50 -28 0 -55 -33 -40 -48 9 -9 8 -12 -5 -12 -15 0 -67 47
-67 61 0 12 32 34 74 51 43 18 95 22 134 12z m3373 -33 c-6 -10 -16 -23 -24
-30 -12 -9 -16 -8 -20 8 -3 13 2 25 17 34 26 18 39 12 27 -12z m-471 -36 c-7
-8 -20 -15 -29 -15 -11 1 -8 5 9 15 32 18 35 18 20 0z m62 -7 c-7 -7 -12 -8
-12 -2 0 6 3 14 7 17 3 4 9 5 12 2 2 -3 -1 -11 -7 -17z m311 -29 c-4 -15 -9
-17 -19 -8 -16 13 -7 40 11 33 7 -3 11 -14 8 -25z m564 15 c-3 -3 -12 -4 -19
-1 -8 3 -5 6 6 6 11 1 17 -2 13 -5z m-537 -24 c0 -5 -16 -24 -35 -41 -19 -18
-32 -36 -28 -42 3 -6 1 -7 -5 -3 -19 11 -14 23 25 61 39 38 43 40 43 25z m160
-4 c0 -3 -4 -8 -10 -11 -5 -3 -10 -1 -10 4 0 6 5 11 10 11 6 0 10 -2 10 -4z
m-63 -38 c-40 -54 -43 -62 -19 -49 28 15 34 14 31 -6 -3 -33 1 -35 22 -12 20
24 20 24 14 2 -5 -18 -2 -22 15 -20 11 1 20 5 20 9 0 4 5 8 10 8 21 0 9 -19
-20 -32 -34 -15 -35 -16 -16 -41 15 -20 32 -6 20 16 -4 6 -3 9 1 4 5 -4 19 2
31 14 12 11 25 16 28 11 3 -5 -3 -17 -14 -27 -25 -22 -26 -37 -2 -34 21 3 62
-10 62 -20 0 -4 -9 -17 -20 -29 -12 -12 -16 -22 -9 -22 6 0 9 -6 6 -14 -5 -12
-1 -13 24 -4 17 6 32 8 35 5 3 -3 -4 -8 -15 -12 -12 -3 -21 -11 -21 -16 0 -6
3 -8 8 -5 4 2 23 1 41 -3 32 -6 33 -8 18 -23 -24 -23 -21 -29 11 -26 21 2 26
-1 24 -14 -2 -11 6 -18 20 -21 25 -4 15 -11 -34 -21 -20 -5 -26 -11 -22 -24 4
-12 0 -10 -12 6 -9 12 -23 22 -31 22 -8 0 -12 4 -9 9 3 5 16 7 29 4 22 -5 22
-5 2 10 -11 9 -24 17 -28 17 -9 0 -69 -41 -79 -55 -12 -17 -23 5 -11 23 6 10
21 16 34 14 22 -2 21 0 -11 28 -19 18 -27 29 -18 26 9 -2 22 3 30 11 11 15 11
16 -6 10 -10 -4 -25 -2 -32 4 -11 9 -14 8 -14 -5 0 -9 -5 -16 -11 -16 -7 0 -9
11 -6 30 5 24 4 28 -11 23 -16 -6 -16 -5 0 13 22 25 8 55 -16 35 -9 -8 -16
-10 -16 -7 0 4 -9 2 -20 -4 -14 -7 -20 -7 -20 0 0 5 7 10 15 10 13 0 13 4 -2
26 -14 23 -18 24 -23 9 -5 -15 -7 -16 -19 -1 -9 11 -10 16 -2 16 7 0 26 10 44
22 18 13 34 24 36 25 2 2 2 6 -1 9 -4 3 -20 -2 -37 -10 -39 -21 -49 -20 -24 2
28 24 19 44 -13 31 -58 -21 -56 -2 4 58 52 51 62 55 29 11z m392 12 l25 0 -23
-17 c-20 -13 -29 -14 -56 -5 -17 7 -39 12 -48 12 -9 0 -17 5 -17 11 0 8 15 10
46 5 26 -3 58 -6 73 -6z m-4061 -11 c-2 -6 -8 -10 -13 -10 -5 0 -11 4 -13 10
-2 6 4 11 13 11 9 0 15 -5 13 -11z m3477 -9 c-3 -5 -10 -10 -16 -10 -5 0 -9 5
-9 10 0 6 7 10 16 10 8 0 12 -4 9 -10z m85 -5 c-7 -9 -15 -13 -19 -10 -3 3 1
10 9 15 21 14 24 12 10 -5z m264 -9 c-3 -8 -15 -16 -27 -19 -21 -6 -21 -6 2
14 28 23 32 24 25 5z m341 2 c37 -10 38 -12 15 -18 -24 -6 -64 4 -84 22 -14
12 22 10 69 -4z m-740 -18 c-3 -5 -12 -10 -18 -10 -7 0 -6 4 3 10 19 12 23 12
15 0z m50 -30 c3 -5 1 -10 -4 -10 -6 0 -11 5 -11 10 0 6 2 10 4 10 3 0 8 -4
11 -10z m65 -13 c-14 -8 -27 -12 -30 -10 -7 6 23 23 40 23 8 0 4 -6 -10 -13z
m-653 -3 c-3 -3 -12 -4 -19 -1 -8 3 -5 6 6 6 11 1 17 -2 13 -5z m1156 -4 c15
0 18 -3 10 -11 -12 -12 -63 -2 -63 13 0 6 7 7 16 4 9 -3 25 -6 37 -6z m-428
-20 c-22 -25 -73 -51 -79 -41 -3 4 11 13 30 20 19 7 32 16 29 21 -3 4 1 11 7
13 26 11 31 6 13 -13z m-3379 -108 c1 -29 0 -30 -27 -20 -16 5 -29 14 -29 18
0 5 -3 15 -6 24 -5 13 0 15 27 12 30 -3 34 -7 35 -34z m3314 33 c0 -2 -10 -10
-22 -16 -21 -11 -22 -11 -9 4 13 16 31 23 31 12z m0 -50 c0 -1 -9 -5 -20 -8
-12 -3 -20 0 -20 8 0 8 8 11 20 8 11 -3 20 -7 20 -8z m-3376 -31 c9 -23 8 -24
-14 -24 -19 0 -27 20 -13 33 11 11 20 8 27 -9z m3545 -7 c0 -9 -2 -8 -6 1 -2
6 -10 9 -15 6 -7 -4 -8 -2 -4 5 9 13 26 5 25 -12z m-2650 -30 c25 -12 45 -26
45 -32 1 -15 -71 -23 -117 -13 -23 5 -57 12 -74 15 -34 5 -43 23 -20 41 33 27
98 23 166 -11z m2556 13 c-3 -5 -11 -10 -16 -10 -6 0 -7 5 -4 10 3 6 11 10 16
10 6 0 7 -4 4 -10z m129 -32 c-3 -5 -12 -7 -20 -4 -8 3 -14 1 -14 -5 0 -6 -4
-7 -10 -4 -5 3 -10 11 -10 16 0 6 4 8 9 4 5 -3 12 -1 16 4 3 6 12 8 20 5 8 -4
12 -10 9 -16z m-129 -8 c-27 -12 -43 -12 -25 0 8 5 22 9 30 9 10 0 8 -3 -5 -9z
m-734 -11 c19 -6 40 -13 48 -15 25 -8 -3 -24 -68 -40 -35 -8 -66 -12 -71 -9
-5 3 -37 8 -71 11 -35 2 -65 7 -68 10 -3 2 2 12 11 21 30 29 156 42 219 22z
m884 -8 c-6 -5 -21 -12 -35 -16 -24 -7 -24 -7 -5 9 21 16 56 23 40 7z m-3675
-26 c-7 -8 -16 -15 -21 -15 -5 0 -9 7 -9 15 0 9 9 15 21 15 18 0 19 -2 9 -15z
m990 1 c0 -11 -19 -15 -25 -6 -3 5 1 10 9 10 9 0 16 -2 16 -4z m2740 -16 c0
-5 -7 -10 -16 -10 -8 0 -12 5 -9 10 3 6 10 10 16 10 5 0 9 -4 9 -10z m160 -26
c0 -12 -45 -25 -55 -16 -3 3 0 11 6 18 13 16 49 14 49 -2z m-1130 -4 c0 -5 -5
-10 -11 -10 -5 0 -7 5 -4 10 3 6 8 10 11 10 2 0 4 -4 4 -10z m1000 -20 c0 -5
-10 -10 -22 -9 -22 0 -22 1 -3 9 11 5 21 9 23 9 1 1 2 -3 2 -9z m168 -23 c-31
-12 -37 -27 -11 -27 14 0 14 -3 5 -12 -10 -10 -14 -10 -21 0 -5 9 -24 12 -59
9 -59 -5 -88 7 -45 18 15 5 34 7 41 6 6 -1 20 3 30 8 9 6 33 10 52 10 l35 -1
-27 -11z m-3978 -16 c0 -15 -16 -22 -35 -15 -13 5 -14 8 -3 15 18 12 38 11 38
0z m3797 -7 c-3 -3 -12 -4 -19 -1 -8 3 -5 6 6 6 11 1 17 -2 13 -5z m-3844 -63
c-1 -39 -5 -43 -27 -35 -28 11 -17 78 13 72 11 -3 16 -13 14 -37z m4087 -5
l32 -13 -45 -12 c-25 -6 -49 -11 -52 -11 -5 0 26 48 31 50 1 0 16 -6 34 -14z
m-100 -16 c0 -12 -27 -12 -55 0 -16 7 -13 9 18 9 20 1 37 -3 37 -9z m-3293
-16 c-3 -3 -12 -4 -19 -1 -8 3 -5 6 6 6 11 1 17 -2 13 -5z m3395 -20 c-24 -17
-39 -14 -27 5 3 6 16 11 28 11 l21 0 -22 -16z m-2738 -3 c6 -10 -22 -37 -29
-29 -8 7 5 38 15 38 5 0 11 -4 14 -9z m-1254 -45 c0 -2 -7 -7 -16 -10 -8 -3
-12 -2 -9 4 6 10 25 14 25 6z m2102 -16 c-12 -11 -24 -20 -27 -20 -3 0 0 9 7
20 7 11 19 20 27 20 11 0 9 -6 -7 -20z m1557 1 c7 -5 10 -14 7 -20 -4 -6 -1
-11 8 -11 8 0 18 -4 21 -10 13 -21 -24 -9 -60 20 -35 28 -36 30 -14 30 13 0
30 -4 38 -9z m388 3 c-3 -3 -12 -4 -19 -1 -8 3 -5 6 6 6 11 1 17 -2 13 -5z
m-90 -10 c-3 -3 -12 -4 -19 -1 -8 3 -5 6 6 6 11 1 17 -2 13 -5z m-3919 -16
c28 -3 9 -18 -21 -18 -24 0 -34 5 -34 16 0 11 6 14 21 9 12 -4 27 -7 34 -7z
m3972 -18 c-20 -13 -33 -13 -25 0 3 6 14 10 23 10 15 0 15 -2 2 -10z m-280
-10 c0 -5 -2 -10 -4 -10 -3 0 -8 5 -11 10 -3 6 -1 10 4 10 6 0 11 -4 11 -10z
m-3660 -33 c16 0 27 -4 25 -7 -3 -4 10 -15 28 -25 33 -17 23 -17 -40 1 -37 10
-26 -10 18 -35 22 -13 38 -25 35 -29 -3 -3 2 -11 12 -19 26 -22 2 -11 -50 22
-41 27 -52 39 -56 68 -2 15 -31 37 -49 37 -15 0 -16 2 -3 10 10 6 20 4 32 -7
10 -9 32 -16 48 -16z m1418 11 c73 0 92 -3 92 -14 0 -8 -4 -14 -8 -14 -5 0
-19 -9 -32 -20 -32 -28 -135 -26 -167 3 -15 13 -30 17 -46 13 -19 -4 -26 -1
-30 14 -7 25 -6 26 50 21 26 -2 90 -3 141 -3z m2099 6 c-3 -3 -12 -4 -19 -1
-8 3 -5 6 6 6 11 1 17 -2 13 -5z m-3397 -23 c0 -5 -9 -7 -20 -4 -11 3 -20 7
-20 9 0 2 9 4 20 4 11 0 20 -4 20 -9z m3556 -16 c20 -19 4 -20 -22 0 -12 9
-14 14 -6 15 7 0 20 -7 28 -15z m284 5 c0 -5 -2 -10 -4 -10 -3 0 -8 5 -11 10
-3 6 -1 10 4 10 6 0 11 -4 11 -10z m-3785 -20 c16 -18 16 -20 2 -20 -9 0 -21
9 -27 20 -6 11 -7 20 -2 20 5 0 17 -9 27 -20z m3275 13 c-8 -3 -22 -11 -30
-18 -22 -18 -113 -29 -107 -12 2 7 16 11 32 9 16 -2 40 0 54 3 24 7 25 8 6 15
-15 7 -10 9 20 9 22 -1 33 -3 25 -6z m-3620 -33 c-20 -13 -33 -13 -25 0 3 6
14 10 23 10 15 0 15 -2 2 -10z m75 0 c16 -7 13 -9 -17 -9 -21 -1 -38 4 -38 9
0 12 27 12 55 0z m4089 1 c7 -11 -32 -46 -41 -37 -5 4 0 12 10 17 9 6 15 14
12 20 -4 5 -2 9 4 9 5 0 12 -4 15 -9z m-394 -11 c12 -8 9 -10 -13 -10 -16 0
-26 4 -22 10 8 12 16 12 35 0z m-3470 -10 c0 -5 -2 -10 -4 -10 -2 0 -12 -3
-22 -7 -16 -6 -17 -5 -4 10 17 19 30 22 30 7z m3305 0 c3 -5 -1 -10 -10 -10
-9 0 -13 5 -10 10 3 6 8 10 10 10 2 0 7 -4 10 -10z m602 -6 c-3 -3 -12 -4 -19
-1 -8 3 -5 6 6 6 11 1 17 -2 13 -5z m-3857 -44 c0 -5 -4 -10 -9 -10 -6 0 -13
5 -16 10 -3 6 1 10 9 10 9 0 16 -4 16 -10z m3487 -6 c-3 -3 -12 -4 -19 -1 -8
3 -5 6 6 6 11 1 17 -2 13 -5z m-3356 -41 c13 -15 12 -15 -11 -3 -34 17 -36 20
-18 20 9 0 22 -7 29 -17z m3029 4 c0 -8 -14 -11 -47 -8 -40 4 -44 5 -23 12 40
11 70 10 70 -4z m-3103 -3 c-3 -3 -12 -4 -19 -1 -8 3 -5 6 6 6 11 1 17 -2 13
-5z m2903 -3 c0 -13 37 -20 48 -9 5 5 14 3 22 -7 7 -8 20 -15 28 -15 21 0 3
-17 -22 -22 -19 -3 -19 -4 -2 -21 18 -17 18 -18 -5 -13 -13 3 -41 8 -63 11
-28 5 -36 9 -28 17 8 8 18 8 36 0 14 -6 28 -8 30 -3 7 11 -24 38 -48 42 -24 5
-34 29 -12 29 9 0 16 -4 16 -9z m447 3 c-3 -3 -12 -4 -19 -1 -8 3 -5 6 6 6 11
1 17 -2 13 -5z m73 -60 c0 -2 -7 -4 -15 -4 -8 0 -15 4 -15 10 0 5 7 7 15 4 8
-4 15 -8 15 -10z m-3455 -4 c3 -6 -1 -7 -9 -4 -18 7 -21 14 -7 14 6 0 13 -4
16 -10z m175 -20 c11 -8 7 -9 -15 -4 -37 8 -45 14 -19 14 10 0 26 -5 34 -10z
m2517 4 c-3 -3 -12 -4 -19 -1 -8 3 -5 6 6 6 11 1 17 -2 13 -5z m368 -4 c3 -5
-1 -10 -9 -10 -9 0 -16 5 -16 10 0 6 4 10 9 10 6 0 13 -4 16 -10z m105 -10 c0
-5 -4 -10 -9 -10 -6 0 -13 5 -16 10 -3 6 1 10 9 10 9 0 16 -4 16 -10z m369 6
c-2 -2 -22 -6 -44 -9 -28 -5 -34 -4 -20 3 19 8 73 14 64 6z m-3474 -16 c-7
-11 -80 -9 -91 3 -4 4 16 7 45 7 32 0 50 -4 46 -10z m2772 -10 c-1 -11 -7 -20
-13 -20 -7 0 -10 8 -7 20 3 11 9 20 14 20 4 0 7 -9 6 -20z m277 -9 c4 -5 -3
-7 -14 -4 -23 6 -26 13 -6 13 8 0 17 -4 20 -9z m-434 -11 c24 -8 24 -8 -7 -9
-17 -1 -35 4 -38 9 -7 11 9 11 45 0z m1240 -14 c0 -3 -4 -8 -10 -11 -5 -3 -10
-1 -10 4 0 6 5 11 10 11 6 0 10 -2 10 -4z m-380 -21 c11 -13 10 -15 -1 -11
-41 13 -69 15 -69 6 0 -5 6 -10 14 -10 8 0 27 -5 43 -11 19 -7 24 -12 14 -18
-8 -6 2 -13 33 -22 25 -7 46 -17 46 -21 0 -4 -8 -4 -17 -1 -16 6 -16 4 -5 -9
7 -9 27 -20 44 -24 l32 -6 -24 -13 c-13 -7 -41 -13 -63 -13 -66 -1 -52 -9 28
-17 71 -6 97 -25 34 -25 -33 0 -36 -7 -11 -26 10 -8 12 -13 5 -14 -19 0 -16
-20 2 -20 13 0 38 -39 31 -47 -1 -2 -18 2 -37 8 -19 6 -71 12 -117 14 -45 3
-90 9 -100 14 -14 9 -12 10 11 11 42 0 28 23 -21 35 -36 9 -39 12 -24 22 16
11 15 12 -3 13 -11 0 -33 8 -50 16 -16 8 -22 12 -12 9 25 -7 21 4 -5 15 -18 7
-19 9 -5 9 24 1 21 18 -5 25 -35 9 -68 7 -68 -4 0 -5 9 -10 19 -10 11 0 23 -5
27 -12 5 -8 0 -9 -17 -3 -13 4 -51 11 -84 15 -42 5 -49 7 -25 9 43 2 79 21 40
21 -37 0 -70 11 -70 23 0 12 126 2 144 -11 20 -16 106 -41 106 -31 0 5 -7 9
-15 9 -36 0 -10 18 43 30 55 13 56 14 30 24 -32 11 -39 31 -8 21 21 -7 28 9 9
21 -18 10 11 24 52 24 21 0 42 -7 49 -15z m-223 -28 c-2 -7 -14 -14 -27 -17
-23 -5 -23 -6 11 -24 35 -18 27 -17 -53 5 -27 7 -48 16 -48 19 0 11 58 30 74
24 9 -3 16 -1 16 5 0 6 7 8 15 4 9 -3 14 -10 12 -16z m-579 6 c-10 -2 -26 -2
-35 0 -10 3 -2 5 17 5 19 0 27 -2 18 -5z m-2757 -16 c9 -7 14 -17 12 -24 -2
-6 4 -13 14 -15 10 -3 -1 -6 -24 -9 -31 -3 -43 -1 -43 8 0 7 9 13 21 13 11 0
17 5 14 10 -3 6 -15 10 -26 10 -10 0 -19 5 -19 10 0 14 32 12 51 -3z m3379 -6
c0 -10 -30 -24 -37 -17 -3 3 -2 9 2 15 8 13 35 15 35 2z m-590 -18 c-1 -25
-16 -31 -48 -18 -42 18 -40 25 8 25 22 0 40 -3 40 -7z m-125 -21 c-3 -3 -11 0
-18 7 -9 10 -8 11 6 5 10 -3 15 -9 12 -12z m281 9 c-3 -5 -15 -7 -26 -4 -28 7
-25 13 6 13 14 0 23 -4 20 -9z m-285 -69 c-7 -2 -18 1 -23 6 -8 8 -4 9 13 5
13 -4 18 -8 10 -11z m349 9 c0 -5 -9 -7 -20 -4 -11 3 -20 7 -20 9 0 2 9 4 20
4 11 0 20 -4 20 -9z m230 -25 l45 -15 -48 0 c-31 -1 -54 5 -63 14 -14 13 -13
15 3 15 10 0 38 -7 63 -14z m-100 -6 c21 -7 17 -8 -20 -9 -25 0 -52 4 -60 9
-19 12 42 12 80 0z m-615 -60 c3 -5 1 -10 -4 -10 -6 0 -11 5 -11 10 0 6 2 10
4 10 3 0 8 -4 11 -10z m505 1 c14 -4 20 -10 15 -13 -6 -3 -23 0 -40 7 -32 14
-17 18 25 6z m-514 -38 c24 -15 44 -31 44 -35 0 -16 -27 -6 -95 33 -67 39 -68
40 -32 35 21 -3 58 -18 83 -33z m58 18 c4 -5 -3 -7 -14 -4 -23 6 -26 13 -6 13
8 0 17 -4 20 -9z m-3130 -17 c3 -9 3 -21 -1 -27 -4 -7 -6 -20 -5 -29 4 -22
-23 -23 -58 -3 -19 11 -21 14 -8 15 19 0 38 28 31 48 -7 18 34 15 41 -4z
m4402 -5 c8 -14 -10 -11 -32 6 -18 13 -18 14 4 8 12 -3 25 -9 28 -14z m-400
-14 c27 -8 63 -15 80 -15 16 0 34 -4 40 -9 15 -15 74 -24 74 -11 0 8 6 8 20 0
11 -6 24 -9 28 -6 4 2 8 -7 8 -20 1 -13 -2 -24 -7 -24 -6 0 -5 -9 1 -20 7 -13
18 -19 28 -16 9 3 24 1 32 -4 12 -7 12 -10 -4 -16 -18 -7 -17 -8 5 -17 14 -5
19 -11 12 -14 -7 -3 -13 -9 -13 -15 0 -7 4 -7 13 0 12 10 195 7 206 -3 2 -3
-36 -6 -85 -6 l-89 -1 68 -21 c37 -11 67 -25 67 -29 0 -5 -5 -6 -11 -2 -6 4
-27 10 -46 14 -33 8 -34 8 -17 -11 9 -10 24 -19 33 -19 9 0 34 -16 55 -35 22
-19 35 -35 30 -35 -6 0 -14 4 -20 9 -5 5 -17 11 -28 13 -24 4 -32 -32 -10 -48
13 -10 13 -12 -2 -18 -13 -5 -14 -9 -4 -21 10 -12 10 -15 0 -15 -7 0 -10 -8
-7 -20 3 -12 0 -20 -7 -20 -26 0 -75 22 -80 36 -3 8 -16 14 -28 14 -18 0 -20
2 -8 9 8 6 17 8 21 5 4 -2 10 0 14 6 4 6 -6 10 -25 10 -16 0 -38 4 -48 9 -9 5
-26 13 -37 16 -13 5 -15 9 -7 12 17 7 5 23 -18 23 -10 0 -22 5 -26 12 -5 8 2
9 24 5 46 -9 40 10 -9 29 -25 10 -38 22 -35 29 3 8 -2 16 -10 19 -9 3 -13 10
-9 16 3 5 -7 12 -22 15 -15 4 -47 11 -71 16 -24 5 -46 8 -50 5 -4 -2 -20 2
-37 10 -16 8 -22 12 -12 9 10 -3 20 2 23 10 8 19 32 19 75 1 19 -7 45 -17 59
-21 24 -7 23 -6 -5 16 -57 46 -64 53 -58 62 4 6 -1 8 -11 4 -10 -4 -34 0 -54
9 -66 29 -77 33 -97 37 -14 3 -12 5 8 6 24 1 27 4 22 21 -8 24 -3 24 61 5z
m-59 -79 c12 3 30 1 40 -5 15 -9 11 -10 -23 -11 -30 0 -46 6 -60 23 -19 22
-19 22 1 5 12 -10 29 -15 42 -12z m6 -43 c-7 -2 -19 -2 -25 0 -7 3 -2 5 12 5
14 0 19 -2 13 -5z m-1551 -195 c-9 -9 -15 -9 -24 0 -9 9 -7 12 12 12 19 0 21
-3 12 -12z m164 -3 c19 -8 41 -12 49 -9 8 4 15 2 15 -4 0 -6 19 -17 43 -24 42
-15 59 -40 39 -60 -6 -6 -19 -4 -36 7 -31 21 -31 20 -6 -30 11 -22 20 -46 20
-55 0 -8 9 -26 20 -40 26 -33 25 -48 -1 -24 -12 10 -30 37 -39 59 -18 42 -125
163 -135 153 -3 -3 1 -11 10 -18 20 -17 19 -30 -4 -30 -28 0 -54 45 -41 70 13
24 20 24 66 5z m-102 -51 c3 -8 2 -12 -4 -9 -6 3 -10 10 -10 16 0 14 7 11 14
-7z m302 1 c16 -12 16 -14 3 -15 -9 0 -22 7 -29 15 -16 19 0 19 26 0z m517
-102 c24 -14 50 -35 56 -46 10 -15 10 -18 -1 -11 -12 8 -98 72 -107 80 -13 12
14 0 52 -23z m-3053 8 c0 -5 -7 -12 -16 -15 -14 -5 -15 -4 -4 9 14 17 20 19
20 6z m1277 -5 c-19 -15 -13 -46 9 -46 19 0 18 -19 -1 -26 -22 -9 -18 -24 5
-24 11 0 20 5 20 10 0 6 7 10 16 10 11 0 5 -11 -20 -37 -32 -33 -44 -53 -32
-53 17 0 75 32 79 45 9 22 27 19 27 -5 0 -14 -11 -22 -40 -31 -23 -7 -42 -20
-45 -31 -5 -13 -12 -17 -31 -12 -25 6 -30 -1 -15 -24 5 -9 0 -22 -16 -38 -33
-33 -46 -31 -38 6 5 23 3 30 -9 30 -8 0 -19 -7 -24 -16 -5 -9 -14 -14 -20 -10
-8 5 -1 21 19 49 31 42 27 57 -10 37 -14 -7 -21 -7 -21 0 0 5 7 10 15 10 8 0
15 9 15 19 0 11 6 22 13 25 9 3 7 9 -6 19 -17 14 -17 15 0 21 24 9 62 31 76
45 8 8 7 11 -3 11 -9 1 -4 7 10 15 32 18 51 19 27 1z m-837 -17 c0 -5 -17 -9
-37 -9 l-38 1 30 13 c31 14 45 12 45 -5z m3825 1 c3 -5 -1 -10 -9 -10 -8 0
-18 5 -21 10 -3 6 1 10 9 10 8 0 18 -4 21 -10z m-43 -49 l43 -9 -41 -1 c-28
-1 -46 5 -55 16 -9 11 -10 14 -2 9 7 -4 32 -11 55 -15z m-48 -22 c32 -25 33
-39 4 -38 -13 0 -17 3 -10 6 20 8 14 20 -13 27 -14 4 -25 11 -25 16 0 16 15
12 44 -11z m-2490 -11 c15 -56 -5 -68 -21 -13 -9 27 -8 35 2 35 7 0 15 -10 19
-22z m1266 2 c0 -5 -4 -10 -10 -10 -5 0 -10 5 -10 10 0 6 5 10 10 10 6 0 10
-4 10 -10z m220 0 c0 -5 -4 -10 -9 -10 -6 0 -13 5 -16 10 -3 6 1 10 9 10 9 0
16 -4 16 -10z m-1611 -31 c17 -17 31 -36 30 -42 0 -8 -2 -8 -6 1 -2 6 -13 12
-24 12 -12 0 -19 7 -19 20 0 11 -7 20 -15 20 -8 0 -15 5 -15 10 0 18 18 10 49
-21z m-69 -33 c-13 -13 -35 7 -25 24 5 8 11 8 21 -1 10 -8 12 -15 4 -23z
m1502 17 c31 -36 31 -47 0 -18 -18 16 -32 31 -32 32 0 9 19 0 32 -14z m188
-28 c19 -19 32 -35 29 -35 -3 0 -20 16 -39 35 -19 19 -32 35 -29 35 3 0 20
-16 39 -35z m-209 -2 c13 -16 12 -17 -3 -4 -10 7 -18 15 -18 17 0 8 8 3 21
-13z m-1390 -66 c-8 -8 -11 -5 -11 9 0 27 14 41 18 19 2 -9 -1 -22 -7 -28z
m1149 -128 c0 -5 -4 -9 -10 -9 -5 0 -10 7 -10 16 0 8 5 12 10 9 6 -3 10 -10
10 -16z m-2233 -471 c-3 -8 -6 -5 -6 6 -1 11 2 17 5 13 3 -3 4 -12 1 -19z m13
-38 c0 -5 -4 -10 -10 -10 -5 0 -10 5 -10 10 0 6 5 10 10 10 6 0 10 -4 10 -10z"/>
<path d="M4342 3242 c-12 -8 -22 -21 -22 -28 0 -8 -7 -14 -15 -14 -20 0 -19
-19 1 -27 10 -4 22 1 29 10 15 21 47 22 87 1 28 -14 32 -14 46 0 11 11 12 16
4 16 -7 0 -12 6 -12 14 0 19 -7 23 -56 34 -30 7 -45 5 -62 -6z"/>
<path d="M4258 3103 c7 -3 16 -2 19 1 4 3 -2 6 -13 5 -11 0 -14 -3 -6 -6z"/>
<path d="M4225 3090 c-3 -5 -1 -10 4 -10 6 0 11 5 11 10 0 6 -2 10 -4 10 -3 0
-8 -4 -11 -10z"/>
<path d="M4170 2830 c-8 -5 -11 -12 -7 -16 4 -4 15 0 24 9 18 18 8 23 -17 7z"/>
<path d="M4197 2803 c-4 -3 -7 -11 -7 -17 0 -6 5 -5 12 2 6 6 9 14 7 17 -3 3
-9 2 -12 -2z"/>
<path d="M4250 2729 c0 -5 5 -7 10 -4 6 3 10 8 10 11 0 2 -4 4 -10 4 -5 0 -10
-5 -10 -11z"/>
<path d="M4335 2650 c28 -12 37 -12 30 0 -3 6 -16 10 -28 9 -21 0 -21 -1 -2
-9z"/>
<path d="M4392 1771 c-11 -6 -10 -10 5 -16 41 -17 83 -23 90 -12 3 6 1 7 -5 3
-7 -4 -12 -3 -12 2 0 7 -53 33 -64 32 -1 0 -7 -4 -14 -9z"/>
<path d="M4260 1751 c8 -5 33 -11 55 -14 39 -6 39 -6 15 8 -14 8 -38 14 -55
14 -21 0 -26 -2 -15 -8z"/>
<path d="M4220 1726 c28 -17 50 -21 35 -7 -6 5 -21 12 -35 15 l-25 7 25 -15z"/>
<path d="M4438 1643 c7 -3 16 -2 19 1 4 3 -2 6 -13 5 -11 0 -14 -3 -6 -6z"/>
<path d="M4253 1573 c9 -2 23 -2 30 0 6 3 -1 5 -18 5 -16 0 -22 -2 -12 -5z"/>
<path d="M4370 1510 c0 -5 4 -10 9 -10 6 0 13 5 16 10 3 6 -1 10 -9 10 -9 0
-16 -4 -16 -10z"/>
<path d="M283 4033 c9 -2 23 -2 30 0 6 3 -1 5 -18 5 -16 0 -22 -2 -12 -5z"/>
<path d="M338 3963 c7 -3 16 -2 19 1 4 3 -2 6 -13 5 -11 0 -14 -3 -6 -6z"/>
<path d="M345 3950 c-28 -7 -28 -8 12 -9 23 0 45 4 48 9 7 11 -16 11 -60 0z"/>
<path d="M4690 3950 c-9 -6 -10 -10 -3 -10 6 0 15 5 18 10 8 12 4 12 -15 0z"/>
<path d="M653 3804 c40 -39 44 -49 25 -58 -9 -3 -7 -9 6 -20 11 -9 16 -16 12
-16 -5 0 -3 -7 4 -15 7 -8 23 -15 36 -15 13 0 27 -6 31 -14 4 -8 25 -18 45
-24 31 -8 36 -8 31 5 -9 23 -52 63 -68 63 -7 0 -15 -6 -18 -12 -6 -17 -20 -3
-22 22 -2 26 -84 120 -104 120 -10 0 -1 -14 22 -36z"/>
<path d="M4778 3823 c7 -3 16 -2 19 1 4 3 -2 6 -13 5 -11 0 -14 -3 -6 -6z"/>
<path d="M4860 3810 c0 -5 9 -10 21 -10 11 0 17 5 14 10 -3 6 -13 10 -21 10
-8 0 -14 -4 -14 -10z"/>
<path d="M4960 3805 c32 -18 40 -18 40 0 0 10 -10 15 -32 15 l-33 -1 25 -14z"/>
<path d="M4530 3802 c-24 -11 -53 -35 -80 -67 l-25 -29 25 17 c14 9 35 21 46
26 12 5 24 17 27 25 4 9 16 16 27 16 11 0 20 5 20 10 0 11 -17 12 -40 2z"/>
<path d="M4918 3793 c7 -3 16 -2 19 1 4 3 -2 6 -13 5 -11 0 -14 -3 -6 -6z"/>
<path d="M431 3761 c-7 -5 -9 -11 -5 -14 18 -11 103 -19 125 -12 20 7 19 9
-17 21 -45 16 -83 18 -103 5z"/>
<path d="M620 3711 c0 -5 7 -11 15 -15 9 -3 15 0 15 9 0 8 -7 15 -15 15 -8 0
-15 -4 -15 -9z"/>
<path d="M4968 3713 c6 -2 18 -2 25 0 6 3 1 5 -13 5 -14 0 -19 -2 -12 -5z"/>
<path d="M295 3691 c-10 -17 11 -21 31 -6 18 14 18 14 -3 15 -12 0 -24 -4 -28
-9z"/>
<path d="M1707 3683 c-7 -11 -5 -133 1 -133 3 0 14 7 24 17 10 9 18 11 18 5 0
-6 -5 -12 -12 -14 -12 -4 -3 -28 11 -28 4 0 14 18 21 39 12 37 9 72 -7 97 -11
15 -50 27 -56 17z"/>
<path d="M1987 3683 c-4 -3 -7 -20 -7 -36 0 -21 -4 -28 -14 -24 -8 3 -17 1
-20 -6 -5 -9 -7 -9 -12 1 -9 19 -32 14 -45 -10 -7 -13 -18 -27 -25 -31 -18
-10 -18 -38 0 -31 7 3 16 -3 20 -12 6 -16 8 -15 27 5 11 12 24 19 30 16 5 -4
9 0 9 8 0 8 7 20 15 27 19 16 19 2 0 -44 -18 -44 -12 -48 10 -6 24 47 44 39
35 -12 -5 -24 -7 -45 -5 -46 2 -2 12 16 23 40 l20 43 -1 -42 c-1 -26 -7 -43
-14 -43 -6 0 -11 -9 -10 -20 1 -18 2 -18 19 -3 17 15 18 14 12 -18 -6 -28 -4
-32 7 -21 7 6 16 12 19 12 12 0 3 -64 -9 -68 -6 -2 -11 -14 -11 -27 0 -13 -4
-35 -10 -49 -6 -17 -6 -27 1 -32 6 -4 6 -11 -2 -20 -6 -8 -8 -18 -4 -22 4 -4
13 2 21 13 7 11 20 29 29 40 14 19 15 19 5 -7 -5 -16 -17 -39 -26 -53 -10 -15
-12 -25 -5 -25 6 0 18 16 26 36 10 24 20 34 29 31 9 -4 16 4 21 21 4 16 2 28
-4 30 -6 2 -11 8 -11 13 0 4 8 5 17 2 15 -6 16 -5 3 9 -8 9 -18 14 -22 12 -6
-4 -3 40 7 89 2 9 -1 15 -5 12 -17 -10 -21 15 -6 31 22 21 20 25 -11 22 -21
-2 -28 2 -31 17 -2 11 -1 17 4 13 4 -5 22 9 41 30 34 38 40 52 23 52 -5 0 -10
6 -10 14 0 10 -10 14 -30 14 -16 -1 -30 -5 -30 -9 0 -5 -7 -6 -15 -3 -11 5
-12 10 -2 24 6 11 8 23 4 27 -5 4 -11 2 -15 -4 -4 -7 -20 -16 -35 -22 -25 -10
-27 -9 -17 8 17 32 8 56 -13 34z m133 -263 c0 -5 -5 -10 -11 -10 -5 0 -7 5 -4
10 3 6 8 10 11 10 2 0 4 -4 4 -10z m-49 -147 c-12 -20 -14 -14 -5 12 4 9 9 14
11 11 3 -2 0 -13 -6 -23z"/>
<path d="M1820 3661 c-5 -11 -10 -29 -10 -40 0 -10 -6 -22 -12 -25 -7 -3 -2
-3 11 0 21 5 23 3 18 -15 -6 -26 -2 -26 26 -1 17 17 19 23 8 29 -8 5 -11 16
-8 25 7 18 -1 46 -14 46 -4 0 -13 -9 -19 -19z"/>
<path d="M2282 3659 c3 -8 18 -14 37 -14 18 -1 36 -7 41 -14 7 -12 11 -12 24
1 13 14 11 16 -28 21 -23 3 -50 9 -60 13 -14 5 -17 3 -14 -7z"/>
<path d="M1598 3655 c-3 -3 1 -22 9 -43 7 -20 16 -45 20 -54 11 -36 21 -17 12
23 -10 43 -32 83 -41 74z"/>
<path d="M2619 3643 c-7 -8 -5 -10 8 -7 10 2 24 0 32 -5 12 -8 12 -13 -2 -35
-18 -27 -23 -66 -8 -66 11 0 25 30 22 49 -1 7 2 10 8 7 5 -4 12 -2 15 3 4 5 2
13 -4 16 -7 5 -8 11 -1 19 5 6 7 17 3 23 -9 14 -61 12 -73 -4z"/>
<path d="M2266 3643 c-11 -11 -6 -53 7 -53 7 -1 5 -6 -5 -14 -23 -17 -23 -28
2 -56 11 -12 17 -26 15 -31 -3 -4 -1 -10 4 -13 10 -7 4 -38 -15 -75 -7 -14
-11 -28 -8 -31 9 -8 35 32 41 62 6 32 37 63 53 53 7 -4 2 -15 -16 -31 -14 -14
-23 -28 -20 -31 3 -4 12 2 20 12 8 11 19 16 30 12 11 -4 15 -3 11 4 -4 5 -1
16 5 24 9 10 9 15 1 15 -11 0 -5 56 9 75 22 32 18 41 -19 37 -42 -5 -61 -18
-61 -42 0 -10 -8 -24 -17 -31 -15 -12 -16 -12 -9 6 17 44 15 91 -3 102 -11 7
-22 9 -25 6z"/>
<path d="M1560 3613 c0 -17 6 -38 13 -45 8 -7 17 -20 20 -28 4 -8 4 5 1 30 -3
25 -12 52 -20 60 -12 12 -14 10 -14 -17z"/>
<path d="M2710 3626 c0 -7 10 -16 22 -19 27 -7 30 -5 22 17 -7 19 -44 22 -44
2z"/>
<path d="M2845 3630 c3 -5 8 -10 11 -10 2 0 4 5 4 10 0 6 -5 10 -11 10 -5 0
-7 -4 -4 -10z"/>
<path d="M2992 3628 c-7 -7 -12 -23 -12 -36 0 -13 -5 -32 -10 -42 -6 -10 -11
-32 -13 -47 -2 -16 -7 -34 -11 -41 -4 -7 -5 -15 -3 -19 3 -5 1 -17 -4 -28 l-8
-20 -1 20 c-1 20 -1 20 -12 1 -8 -15 -8 -21 0 -24 9 -3 9 -9 1 -24 -6 -11 -8
-26 -5 -34 3 -9 -1 -14 -12 -15 -10 0 -12 -3 -4 -6 13 -5 17 -34 5 -32 -19 3
-23 -2 -13 -20 7 -13 16 -17 31 -14 16 4 20 2 17 -8 -3 -8 -10 -13 -15 -12
-11 2 -11 -62 0 -73 4 -4 7 -2 7 5 0 7 8 20 17 29 16 16 16 15 10 -8 -4 -14
-10 -61 -13 -105 -5 -75 -4 -78 10 -55 15 25 15 25 16 3 0 -31 18 -29 26 2 3
14 10 22 16 19 27 -17 72 64 69 124 -1 31 1 42 10 37 8 -5 9 -1 4 14 -4 12 -3
27 2 34 12 16 30 73 37 119 4 21 15 42 25 48 10 5 21 23 23 40 5 34 -6 40 -22
10 -9 -16 -15 -18 -30 -10 -15 8 -20 8 -20 -3 0 -8 -10 -22 -21 -33 l-22 -19
6 30 c3 17 4 24 1 17 -5 -10 -9 -10 -20 -1 -11 9 -14 8 -14 -1 0 -8 -3 -10 -7
-7 -3 4 -12 2 -20 -4 -10 -9 -13 -7 -13 7 -1 18 -1 18 -11 2 -5 -10 -14 -18
-19 -18 -13 0 -13 37 0 45 6 3 10 20 10 36 0 26 3 29 20 24 18 -6 25 3 21 28
0 4 3 7 8 7 12 0 -2 63 -15 67 -5 2 -15 -2 -22 -9z m18 -228 c0 -5 -2 -10 -4
-10 -3 0 -8 5 -11 10 -3 6 -1 10 4 10 6 0 11 -4 11 -10z m-45 -65 c-4 -31 -8
-55 -10 -53 -1 2 -5 23 -8 48 -4 30 -3 38 3 25 7 -17 9 -14 9 14 1 19 4 32 7
29 3 -4 2 -32 -1 -63z"/>
<path d="M3056 3631 c-9 -14 2 -51 15 -51 11 0 12 30 0 49 -6 9 -11 10 -15 2z"/>
<path d="M1652 3606 c2 -15 8 -26 13 -26 15 0 12 43 -3 48 -10 3 -13 -4 -10
-22z"/>
<path d="M1503 3612 c-19 -3 -23 -10 -24 -40 -1 -54 -13 -90 -23 -74 -5 8 -4
18 2 24 14 14 4 38 -15 38 -10 0 -14 -7 -10 -20 6 -24 -11 -27 -20 -4 -5 13
-7 13 -14 2 -13 -19 -11 -28 6 -28 8 0 19 -9 25 -20 9 -17 14 -19 33 -8 12 6
28 18 35 27 12 14 13 13 9 -6 -3 -15 -1 -20 8 -17 9 4 13 -5 11 -32 -1 -37 17
-69 35 -59 5 4 9 17 9 30 0 13 6 28 14 32 7 4 18 18 24 29 10 18 9 21 -6 20
-9 0 -22 -12 -28 -24 l-11 -24 -13 31 c-7 18 -10 49 -7 71 6 44 -5 58 -40 52z"/>
<path d="M2510 3602 c0 -19 -32 -56 -41 -47 -3 2 -10 -9 -16 -24 -9 -25 -8
-28 8 -24 25 7 26 -35 2 -43 -63 -20 -80 -41 -58 -71 10 -14 13 -14 13 -3 -2
32 2 50 12 50 18 0 7 -64 -18 -99 -12 -19 -31 -35 -42 -36 -28 -2 -32 32 -7
55 12 12 16 20 8 20 -8 0 -11 6 -7 16 11 28 -18 9 -33 -22 -8 -16 -18 -30 -23
-32 -4 -2 -8 -10 -8 -17 0 -8 -5 -17 -11 -20 -5 -4 -3 10 6 32 9 21 19 45 23
53 8 21 -38 -36 -71 -87 -30 -48 -42 -55 -32 -20 6 21 6 21 -14 -3 -11 -14
-26 -41 -32 -60 -6 -19 -16 -41 -21 -47 -13 -16 -29 -7 -21 12 3 9 -1 15 -11
15 -9 0 -16 -6 -16 -14 0 -7 -7 -19 -15 -26 -8 -7 -15 -8 -15 -2 0 18 -38 21
-43 3 -3 -9 -8 -25 -12 -36 -6 -16 -3 -15 13 5 12 14 24 21 28 17 4 -4 0 -15
-8 -24 -27 -32 -33 -49 -10 -29 l21 18 -9 -31 c-12 -43 1 -39 24 9 10 22 23
37 28 34 4 -3 11 1 14 9 3 8 14 17 25 20 15 4 19 2 15 -10 -3 -8 -6 -20 -6
-28 0 -7 -8 -15 -19 -18 -16 -4 -38 -64 -33 -89 1 -4 -5 -23 -13 -42 -20 -47
-20 -62 0 -46 8 7 15 23 15 36 0 12 5 26 10 29 6 4 8 15 5 24 -3 10 4 29 15
44 11 14 27 42 35 61 9 20 20 36 25 36 14 0 13 -7 -5 -33 -8 -12 -11 -28 -6
-35 5 -8 13 -1 24 23 9 19 21 35 26 35 5 0 11 9 14 20 4 17 2 18 -14 9 -33
-17 -25 42 12 82 28 31 30 32 23 9 -10 -30 -8 -80 4 -92 9 -9 79 66 74 80 -2
6 2 13 7 17 7 4 8 0 4 -11 -5 -13 -3 -15 7 -9 10 6 12 4 7 -9 -4 -10 -7 -22
-7 -28 0 -5 -6 -8 -12 -6 -16 6 -28 -7 -55 -60 -26 -49 -27 -52 -14 -52 5 0
12 10 16 23 7 22 7 22 18 -5 15 -38 24 -35 32 12 7 39 20 58 32 46 3 -3 -1
-23 -10 -43 -23 -54 -30 -83 -20 -83 5 0 15 17 22 38 25 69 51 125 56 120 3
-3 -2 -21 -10 -41 -23 -55 -18 -66 13 -29 21 25 27 42 25 72 -1 31 2 40 18 45
16 5 19 16 19 60 0 30 5 57 11 61 9 5 10 -1 5 -20 -4 -15 -2 -26 4 -26 5 0 12
11 16 25 3 14 10 25 14 25 4 0 13 14 21 31 7 18 23 43 36 57 13 14 23 32 23
40 0 14 -1 14 -12 0 -18 -22 -58 -30 -58 -12 0 8 5 14 10 14 6 0 10 7 10 15 0
8 -4 15 -10 15 -5 0 -10 -4 -10 -9 0 -5 -9 -11 -20 -14 -12 -3 -20 0 -20 7 0
18 35 48 44 39 4 -5 2 7 -6 26 -16 39 -38 53 -38 23z m1 -139 c-11 -21 -51
-56 -51 -45 0 10 44 62 53 62 4 0 3 -8 -2 -17z m34 -63 c3 -6 -1 -7 -9 -4 -18
7 -21 14 -7 14 6 0 13 -4 16 -10z m-89 -58 c6 -4 11 -23 11 -42 0 -19 -2 -30
-4 -23 -3 7 -11 9 -19 6 -11 -4 -15 0 -12 13 2 12 -2 18 -10 16 -8 -1 -11 2
-7 8 3 6 11 8 16 5 5 -3 6 1 3 9 -6 17 4 21 22 8z m-257 -114 c-9 -16 -14 -19
-17 -9 -2 7 2 17 9 22 20 13 21 11 8 -13z m121 12 c0 -5 -5 -10 -11 -10 -5 0
-7 5 -4 10 3 6 8 10 11 10 2 0 4 -4 4 -10z m82 -42 c-7 -7 -12 -8 -12 -2 0 14
12 26 19 19 2 -3 -1 -11 -7 -17z"/>
<path d="M2810 3605 c0 -8 4 -15 10 -15 5 0 7 7 4 15 -4 8 -8 15 -10 15 -2 0
-4 -7 -4 -15z"/>
<path d="M866 3602 c-7 -12 19 -40 48 -52 40 -15 51 -13 34 8 -8 9 -18 25 -21
35 -6 17 -51 24 -61 9z"/>
<path d="M2217 3593 c-4 -3 -7 -13 -7 -22 1 -13 3 -13 11 2 11 19 8 33 -4 20z"/>
<path d="M2560 3585 c0 -8 2 -15 4 -15 2 0 6 7 10 15 3 8 1 15 -4 15 -6 0 -10
-7 -10 -15z"/>
<path d="M655 3570 c-3 -5 -21 -10 -39 -10 -18 0 -50 -9 -72 -19 -32 -16 -36
-21 -21 -27 10 -3 29 -2 43 5 31 14 64 14 64 1 0 -5 9 -10 20 -10 11 0 20 5
20 10 0 6 -4 10 -10 10 -5 0 -7 7 -4 15 4 8 12 15 20 15 13 0 78 -33 101 -52
7 -5 16 -7 21 -4 4 3 21 -6 35 -20 15 -14 44 -28 65 -31 34 -6 85 -29 139 -63
19 -12 22 -20 16 -52 -6 -42 7 -50 39 -21 11 9 18 11 18 5 0 -7 5 -12 10 -12
7 0 9 15 6 38 -3 20 -3 28 0 18 6 -20 28 -46 38 -46 3 0 6 12 6 28 0 15 5 45
11 67 10 35 9 41 -11 57 -12 10 -28 18 -35 18 -17 0 -28 -31 -15 -44 32 -32
-16 -55 -54 -25 -13 10 -29 19 -34 19 -5 0 -15 7 -22 15 -15 18 -50 20 -50 3
-1 -9 -5 -8 -13 3 -7 8 -60 38 -118 67 -101 50 -160 64 -174 42z"/>
<path d="M996 3546 c3 -9 11 -16 16 -16 13 0 5 23 -10 28 -7 2 -10 -2 -6 -12z"/>
<path d="M1338 3549 c18 -20 15 -27 -18 -34 -16 -4 -30 -10 -31 -13 0 -4 -2
-17 -3 -29 -4 -31 -13 -38 -31 -23 -20 17 -20 1 2 -50 19 -44 29 -51 29 -20 0
11 -4 20 -8 20 -4 0 -8 7 -8 16 0 11 6 14 21 9 18 -6 20 -4 14 16 -7 23 -7 23
16 7 21 -14 24 -23 22 -73 -1 -31 2 -62 7 -69 50 -62 59 -70 60 -53 0 9 3 17
8 17 4 0 7 10 8 23 0 12 4 31 9 41 6 15 5 17 -5 11 -10 -6 -12 -4 -7 8 3 8 2
28 -3 44 -5 17 -9 21 -9 10 -1 -23 -28 -50 -41 -42 -5 3 -10 24 -10 46 0 21
-4 39 -9 39 -4 0 -6 11 -3 25 3 19 8 23 17 15 9 -8 12 -1 11 27 -1 33 -5 38
-26 41 -20 3 -23 1 -12 -9z"/>
<path d="M2420 3550 c0 -5 7 -10 16 -10 8 0 12 5 9 10 -3 6 -10 10 -16 10 -5
0 -9 -4 -9 -10z"/>
<path d="M2696 3543 c-6 -14 -5 -15 5 -6 7 7 10 15 7 18 -3 3 -9 -2 -12 -12z"/>
<path d="M2935 3550 c3 -5 8 -10 11 -10 2 0 4 5 4 10 0 6 -5 10 -11 10 -5 0
-7 -4 -4 -10z"/>
<path d="M2870 3513 c0 -22 2 -25 10 -13 13 20 13 40 0 40 -5 0 -10 -12 -10
-27z"/>
<path d="M3142 3505 c0 -16 2 -22 5 -12 2 9 2 23 0 30 -3 6 -5 -1 -5 -18z"/>
<path d="M1650 3501 c0 -29 15 -33 16 -5 1 13 -2 24 -7 24 -5 0 -9 -9 -9 -19z"/>
<path d="M1758 3504 c-5 -4 -8 -16 -8 -26 0 -10 -4 -18 -10 -18 -5 0 -10 -12
-11 -27 -1 -28 -1 -28 -11 5 -17 51 -26 37 -15 -24 9 -55 4 -81 -12 -55 -7 11
-10 11 -14 0 -4 -12 -7 -11 -16 1 -7 9 -11 11 -11 3 0 -7 6 -16 14 -20 7 -4
17 -18 20 -30 6 -19 4 -22 -10 -16 -15 5 -16 2 -11 -25 5 -26 3 -32 -11 -32
-14 0 -17 -10 -16 -65 1 -56 4 -68 27 -91 l27 -26 20 23 c11 13 19 33 19 44
-1 28 12 65 22 65 5 0 7 11 3 25 -4 16 -2 25 5 25 7 0 19 16 27 35 8 20 21 38
28 41 8 3 17 17 21 32 4 15 11 30 17 33 7 4 8 17 3 35 -8 27 -9 27 -12 7 -6
-31 -23 -29 -23 2 0 14 -4 26 -10 26 -5 1 -16 2 -22 3 -7 0 -15 14 -18 29 -3
16 -8 25 -12 21z m-5 -147 c5 -31 3 -46 -3 -42 -6 4 -8 10 -5 15 3 5 1 11 -5
15 -11 7 -14 48 -3 58 9 10 9 8 16 -46z"/>
<path d="M2649 3493 c-13 -16 -12 -17 4 -4 16 13 21 21 13 21 -2 0 -10 -8 -17
-17z"/>
<path d="M3050 3490 c0 -5 5 -10 11 -10 5 0 7 5 4 10 -3 6 -8 10 -11 10 -2 0
-4 -4 -4 -10z"/>
<path d="M3301 3481 c-18 -14 -24 -29 -26 -65 -1 -25 2 -46 7 -46 8 0 13 29
10 63 -1 10 3 15 8 12 6 -3 10 3 10 14 0 10 6 21 13 24 6 2 10 7 7 10 -3 3
-16 -2 -29 -12z"/>
<path d="M1830 3475 c-7 -9 -8 -15 -2 -15 5 0 12 7 16 15 3 8 4 15 2 15 -2 0
-9 -7 -16 -15z"/>
<path d="M2410 3480 c0 -5 5 -10 10 -10 6 0 10 5 10 10 0 6 -4 10 -10 10 -5 0
-10 -4 -10 -10z"/>
<path d="M2910 3479 c0 -5 5 -7 10 -4 6 3 10 8 10 11 0 2 -4 4 -10 4 -5 0 -10
-5 -10 -11z"/>
<path d="M3230 3483 c0 -6 -3 -18 -6 -27 -3 -9 -2 -16 4 -16 15 0 21 25 11 41
-5 9 -9 9 -9 2z"/>
<path d="M2744 3463 c-15 -14 -18 -26 -14 -53 l6 -35 16 31 c9 17 16 41 15 53
-2 25 0 25 -23 4z"/>
<path d="M2810 3460 c0 -11 5 -20 10 -20 6 0 10 9 10 20 0 11 -4 20 -10 20 -5
0 -10 -9 -10 -20z"/>
<path d="M3336 3454 c-4 -9 -4 -19 -1 -22 2 -3 7 3 11 12 4 9 4 19 1 22 -2 3
-7 -3 -11 -12z"/>
<path d="M4135 3460 c-3 -5 -1 -10 4 -10 6 0 11 5 11 10 0 6 -2 10 -4 10 -3 0
-8 -4 -11 -10z"/>
<path d="M1206 3452 c-9 -15 12 -54 25 -47 12 8 11 18 -4 40 -10 12 -16 14
-21 7z"/>
<path d="M2684 3410 c-6 -39 -8 -41 -18 -21 -11 20 -12 20 -26 3 -43 -49 -70
-91 -70 -105 0 -10 -7 -17 -16 -17 -14 0 -15 -6 -8 -37 5 -21 8 -65 7 -97 -2
-47 2 -63 16 -75 10 -9 21 -25 24 -36 3 -15 5 -12 7 10 1 17 4 24 7 18 2 -7 9
-13 14 -13 5 0 4 9 -3 19 -6 10 -17 17 -24 14 -6 -2 -15 1 -20 8 -4 7 -2 15 4
17 7 2 12 19 12 38 0 34 32 108 43 98 3 -3 8 10 12 28 4 18 16 51 26 72 11 22
19 49 19 60 1 21 1 21 16 1 15 -19 15 -18 12 14 -5 51 -26 51 -34 1z"/>
<path d="M2895 3440 c-4 -6 -11 -8 -16 -5 -5 4 -8 -20 -7 -54 1 -34 3 -61 5
-61 8 0 25 58 27 93 2 39 1 43 -9 27z"/>
<path d="M3176 3408 c-19 -23 -25 -40 -21 -55 3 -13 1 -23 -4 -23 -5 0 -16
-20 -24 -45 -9 -25 -12 -45 -6 -45 5 0 9 8 9 18 0 9 9 28 20 42 11 14 20 37
20 51 0 15 10 38 21 53 31 39 17 42 -15 4z"/>
<path d="M3236 3414 c-9 -24 -7 -27 9 -10 17 17 19 26 6 26 -5 0 -12 -7 -15
-16z"/>
<path d="M3310 3413 c0 -12 -3 -30 -6 -40 -3 -10 2 -5 11 11 12 20 14 31 6 39
-8 8 -11 5 -11 -10z"/>
<path d="M1893 3398 c-14 -19 -24 -48 -15 -48 8 0 34 52 28 57 -2 2 -8 -2 -13
-9z"/>
<path d="M1461 3391 c-12 -8 -12 -12 2 -25 10 -10 18 -12 22 -6 3 5 2 10 -4
10 -6 0 -8 7 -5 15 7 17 4 18 -15 6z"/>
<path d="M3222 3368 c-14 -14 -16 -28 -3 -28 9 0 24 30 18 36 -2 2 -9 -2 -15
-8z"/>
<path d="M1181 3354 c0 -11 3 -14 6 -6 3 7 2 16 -1 19 -3 4 -6 -2 -5 -13z"/>
<path d="M1621 3350 c-1 -28 14 -57 21 -44 3 5 -1 23 -8 39 -13 29 -13 29 -13
5z"/>
<path d="M2386 3361 c-4 -7 -5 -15 -2 -18 9 -9 19 4 14 18 -4 11 -6 11 -12 0z"/>
<path d="M3653 3355 c-8 -22 6 -33 17 -15 13 20 12 30 0 30 -6 0 -13 -7 -17
-15z"/>
<path d="M3968 3341 c-29 -29 -35 -41 -19 -41 11 0 55 59 50 65 -2 2 -16 -9
-31 -24z"/>
<path d="M1237 3353 c-9 -9 -9 -40 1 -45 17 -8 71 -87 60 -90 -7 -3 -7 -11 3
-26 16 -25 44 -31 35 -7 -4 13 -2 14 14 5 11 -6 20 -17 20 -24 0 -11 15 -21
63 -44 4 -2 7 1 7 6 0 5 -13 15 -29 21 -32 14 -55 49 -49 76 3 18 4 18 21 1 9
-10 17 -13 17 -8 0 15 -28 34 -39 27 -6 -3 -19 -2 -28 4 -17 9 -17 10 0 16 9
4 17 11 17 17 0 5 -5 6 -11 2 -6 -3 -15 0 -20 7 -7 11 -9 10 -9 -3 0 -10 -3
-18 -6 -18 -10 0 -33 31 -48 63 -7 15 -15 24 -19 20z"/>
<path d="M2737 3340 c3 -11 7 -20 9 -20 2 0 4 9 4 20 0 11 -4 20 -9 20 -5 0
-7 -9 -4 -20z"/>
<path d="M2830 3351 c0 -6 4 -12 8 -15 5 -3 7 -20 6 -38 l-3 -33 8 34 c5 19 7
40 4 48 -6 15 -23 18 -23 4z"/>
<path d="M752 3328 c-20 -20 -14 -28 23 -28 19 0 35 -4 35 -9 0 -5 13 -14 30
-21 16 -7 51 -32 77 -57 26 -24 49 -39 51 -33 2 5 9 7 14 3 8 -4 9 2 5 18 -4
13 -7 27 -7 32 0 4 -12 7 -26 7 -30 0 -100 52 -109 80 -5 15 -15 20 -44 20
-20 0 -42 -5 -49 -12z"/>
<path d="M2545 3319 c-4 -12 -2 -26 4 -32 8 -8 11 -2 11 21 0 37 -6 41 -15 11z"/>
<path d="M3703 3325 c-7 -8 -9 -16 -4 -19 5 -3 12 1 15 10 8 22 4 25 -11 9z"/>
<path d="M2506 3294 c-3 -9 -4 -19 -1 -24 5 -8 -17 -79 -37 -118 -9 -17 -9
-25 1 -35 10 -9 11 -8 6 6 -5 11 -2 17 7 17 18 0 44 53 29 58 -7 2 -8 10 -2
20 8 14 12 92 5 92 -1 0 -5 -7 -8 -16z"/>
<path d="M1025 3290 c3 -5 8 -10 11 -10 2 0 4 5 4 10 0 6 -5 10 -11 10 -5 0
-7 -4 -4 -10z"/>
<path d="M602 3277 c-43 -11 -52 -30 -15 -35 11 -2 26 4 33 13 7 8 25 15 41
15 16 0 29 5 29 10 0 12 -30 11 -88 -3z"/>
<path d="M3360 3274 c0 -8 5 -12 10 -9 6 4 8 11 5 16 -9 14 -15 11 -15 -7z"/>
<path d="M3706 3271 c-4 -7 -5 -15 -2 -18 9 -9 19 4 14 18 -4 11 -6 11 -12 0z"/>
<path d="M1170 3244 c0 -7 27 -34 34 -34 13 0 5 16 -14 28 -11 7 -20 10 -20 6z"/>
<path d="M3265 3215 c-15 -19 -25 -38 -22 -41 3 -3 17 11 32 31 15 19 25 38
22 41 -3 3 -17 -11 -32 -31z"/>
<path d="M1232 3232 c-10 -7 -8 -12 5 -24 10 -8 25 -18 33 -22 8 -4 5 2 -8 13
-13 11 -21 25 -17 31 7 12 4 12 -13 2z"/>
<path d="M0 3185 l0 -45 38 -1 c88 -3 157 -9 169 -13 27 -11 13 44 -18 74 -30
28 -37 30 -110 30 l-79 0 0 -45z"/>
<path d="M1179 3189 c32 -29 46 -37 52 -28 5 9 17 5 44 -17 57 -45 96 -68 90
-52 -6 16 -142 108 -159 108 -7 0 -21 7 -32 15 -40 30 -36 13 5 -26z"/>
<path d="M2220 3200 c0 -5 5 -10 11 -10 5 0 7 5 4 10 -3 6 -8 10 -11 10 -2 0
-4 -4 -4 -10z"/>
<path d="M1120 3185 c0 -8 -7 -15 -15 -15 -8 0 -15 -5 -15 -11 0 -5 -5 -7 -10
-4 -6 4 -18 1 -26 -6 -12 -10 -13 -9 -8 7 5 18 5 18 -10 0 -21 -26 -20 -29 7
-53 23 -21 104 -43 93 -24 -3 5 -1 11 6 14 7 2 1 2 -14 0 -14 -2 -29 1 -33 6
-3 6 -15 11 -27 11 -14 0 -18 5 -14 16 3 9 6 18 6 20 0 2 5 4 11 4 6 0 9 -7 5
-15 -5 -13 -2 -14 17 -4 12 7 23 12 24 11 2 -1 9 1 17 4 8 3 28 -2 45 -10 43
-23 52 -20 12 5 -18 11 -31 23 -27 26 8 9 -14 33 -30 33 -8 0 -14 -7 -14 -15z"/>
<path d="M1992 3175 c-15 -33 -15 -39 1 -24 11 11 21 49 13 49 -2 0 -8 -11
-14 -25z"/>
<path d="M3970 3180 c0 -5 7 -10 15 -10 8 0 15 5 15 10 0 6 -7 10 -15 10 -8 0
-15 -4 -15 -10z"/>
<path d="M2531 3164 c0 -11 3 -14 6 -6 3 7 2 16 -1 19 -3 4 -6 -2 -5 -13z"/>
<path d="M1345 3160 c-3 -5 -1 -10 4 -10 6 0 11 5 11 10 0 6 -2 10 -4 10 -3 0
-8 -4 -11 -10z"/>
<path d="M2232 3110 c-32 -69 -22 -88 11 -23 28 54 33 73 19 73 -4 0 -18 -23
-30 -50z"/>
<path d="M970 3140 c0 -5 5 -10 10 -10 6 0 10 5 10 10 0 6 -4 10 -10 10 -5 0
-10 -4 -10 -10z"/>
<path d="M1100 3120 c0 -5 5 -10 11 -10 5 0 7 5 4 10 -3 6 -8 10 -11 10 -2 0
-4 -4 -4 -10z"/>
<path d="M2435 3109 c-4 -6 -5 -12 -2 -15 2 -3 7 2 10 11 7 17 1 20 -8 4z"/>
<path d="M1006 3096 c3 -9 13 -16 22 -16 8 0 13 1 11 3 -2 1 -12 9 -22 16 -15
12 -17 12 -11 -3z"/>
<path d="M2090 3089 c-7 -11 -10 -23 -7 -25 2 -2 9 7 15 21 14 30 7 33 -8 4z"/>
<path d="M2451 3074 c0 -11 3 -14 6 -6 3 7 2 16 -1 19 -3 4 -6 -2 -5 -13z"/>
<path d="M2485 3059 c-4 -11 -4 -23 -1 -26 3 -4 6 1 6 10 0 10 5 17 10 17 6 0
10 5 10 10 0 18 -19 10 -25 -11z"/>
<path d="M2674 3051 c3 -18 6 -38 6 -43 0 -5 4 -7 9 -3 6 3 6 18 1 36 -13 44
-24 51 -16 10z"/>
<path d="M2267 3043 c-3 -16 -1 -32 4 -37 5 -6 9 4 9 27 0 44 -6 48 -13 10z"/>
<path d="M3051 3043 c-1 -7 -21 -34 -46 -60 -24 -26 -44 -55 -44 -63 0 -13 1
-13 7 0 4 8 13 15 21 15 7 0 21 15 31 32 10 18 23 39 30 48 6 8 10 20 7 27 -4
10 -6 10 -6 1z"/>
<path d="M2530 3023 c0 -13 5 -23 10 -23 13 0 13 11 0 30 -8 12 -10 11 -10 -7z"/>
<path d="M2565 2999 l7 -42 -28 20 c-16 11 -37 23 -46 26 -16 6 -16 4 -5 -16
6 -12 17 -26 22 -30 6 -5 0 -5 -12 -2 -20 6 -23 3 -23 -23 0 -38 -25 -62 -33
-32 -3 11 -10 20 -16 20 -8 0 -6 -10 4 -30 18 -35 19 -50 3 -50 -8 0 -14 -17
-16 -42 -2 -34 0 -40 10 -30 6 6 16 12 20 12 13 0 9 -28 -4 -34 -7 -3 -1 -4
15 -1 19 4 27 1 27 -9 0 -7 8 -20 17 -27 15 -13 16 -11 10 19 -4 18 -2 32 3
32 6 0 10 -12 10 -26 0 -14 4 -22 10 -19 5 3 7 20 4 38 -5 29 -4 30 9 15 17
-22 37 -23 37 -3 0 8 8 15 18 15 21 0 42 42 43 89 l1 36 10 -35 c6 -19 13 -30
15 -23 2 7 -4 32 -15 56 -11 25 -23 59 -27 76 -9 41 -26 30 -19 -12 4 -27 1
-24 -21 21 -14 28 -28 52 -31 52 -3 0 -3 -19 1 -41z m-34 -92 c-8 -8 -11 -7
-11 4 0 20 13 34 18 19 3 -7 -1 -17 -7 -23z m82 -7 c3 -11 1 -20 -4 -20 -5 0
-9 2 -9 4 0 2 -3 11 -6 20 -3 9 -2 16 4 16 5 0 12 -9 15 -20z m-123 -65 c-7
-14 -15 -23 -17 -22 -2 2 0 18 3 36 5 22 10 29 17 22 7 -7 6 -18 -3 -36z"/>
<path d="M1975 3015 c-3 -8 -8 -23 -12 -32 -6 -17 -6 -17 -10 0 -5 19 -23 23
-23 5 0 -7 -11 -26 -24 -41 -24 -27 -24 -29 -8 -57 14 -24 18 -26 23 -13 8 22
22 -1 15 -25 -2 -9 -8 -28 -11 -42 -7 -24 -6 -24 16 5 13 17 26 32 30 35 3 3
9 12 12 20 3 8 6 0 6 -19 1 -25 -3 -32 -13 -28 -17 7 -27 -14 -19 -42 3 -12 1
-21 -6 -21 -6 0 -11 -7 -11 -15 0 -8 5 -15 11 -15 5 0 7 6 3 13 -6 10 -4 10 7
0 21 -20 28 -15 23 15 -3 20 -2 23 5 12 9 -13 13 -13 28 3 14 14 15 19 5 26
-15 9 -5 42 12 35 11 -4 52 53 44 61 -2 2 -16 -2 -30 -9 -23 -12 -26 -12 -21
0 3 8 10 14 15 14 6 0 8 7 4 15 -3 8 -1 15 4 15 6 0 10 9 10 21 0 15 -5 19
-15 15 -21 -8 -19 6 5 32 24 25 25 32 6 32 -7 0 -21 -10 -29 -22 -13 -18 -16
-19 -16 -7 -1 22 -30 33 -36 14z"/>
<path d="M2407 3023 c-4 -3 -7 -11 -7 -17 0 -6 5 -5 12 2 6 6 9 14 7 17 -3 3
-9 2 -12 -2z"/>
<path d="M2204 3003 c-3 -10 -12 -31 -20 -46 -7 -16 -14 -47 -14 -70 0 -23 -7
-54 -14 -69 -16 -30 -7 -38 14 -13 7 8 12 33 12 56 -1 49 14 93 28 84 6 -4 10
10 10 34 0 43 -7 53 -16 24z"/>
<path d="M2335 3009 c-4 -6 -5 -12 -2 -15 2 -3 7 2 10 11 7 17 1 20 -8 4z"/>
<path d="M950 3000 c0 -5 5 -10 11 -10 5 0 7 5 4 10 -3 6 -8 10 -11 10 -2 0
-4 -4 -4 -10z"/>
<path d="M1305 3000 c3 -5 13 -10 21 -10 8 0 12 5 9 10 -3 6 -13 10 -21 10 -8
0 -12 -4 -9 -10z"/>
<path d="M2128 2980 c-9 -17 -15 -30 -13 -30 7 0 45 43 45 52 0 17 -16 6 -32
-22z"/>
<path d="M2651 2993 c0 -20 17 -64 18 -49 1 6 8 1 16 -10 13 -17 13 -15 2 16
-15 44 -37 70 -36 43z"/>
<path d="M2418 2994 c-5 -4 -8 -21 -8 -38 0 -21 3 -27 11 -19 6 6 9 23 7 38
-2 15 -6 23 -10 19z"/>
<path d="M3540 2990 c0 -5 -7 -10 -15 -10 -8 0 -15 -4 -15 -9 0 -5 -20 -12
-44 -15 -54 -8 -80 -32 -44 -41 26 -7 72 7 83 24 3 6 19 11 36 11 16 0 38 9
49 20 11 11 26 20 33 20 8 0 7 -4 -3 -10 -8 -5 -11 -10 -6 -10 6 0 1 -6 -9
-14 -17 -12 -17 -13 8 -18 31 -6 52 5 42 22 -4 6 0 17 9 23 13 10 3 13 -54 15
-43 2 -70 -1 -70 -8z"/>
<path d="M2262 2978 c-14 -14 -16 -28 -3 -28 9 0 24 30 18 36 -2 2 -9 -2 -15
-8z"/>
<path d="M2381 2964 c0 -11 3 -14 6 -6 3 7 2 16 -1 19 -3 4 -6 -2 -5 -13z"/>
<path d="M3720 2970 c-12 -8 -9 -10 13 -10 16 0 26 4 22 10 -8 12 -16 12 -35
0z"/>
<path d="M855 2960 c4 -6 11 -8 16 -5 14 9 11 15 -7 15 -8 0 -12 -5 -9 -10z"/>
<path d="M915 2960 c-3 -5 1 -10 9 -10 9 0 16 5 16 10 0 6 -4 10 -9 10 -6 0
-13 -4 -16 -10z"/>
<path d="M2285 2959 c-4 -6 -5 -13 -2 -16 7 -7 27 6 27 18 0 12 -17 12 -25 -2z"/>
<path d="M2323 2944 c-13 -13 -18 -26 -13 -29 6 -3 10 -1 10 4 0 6 9 11 20 11
11 0 20 6 20 14 0 25 -14 25 -37 0z"/>
<path d="M3363 2958 c-6 -11 29 -10 46 1 10 7 6 9 -13 8 -16 -1 -30 -5 -33 -9z"/>
<path d="M2441 2944 c0 -11 3 -14 6 -6 3 7 2 16 -1 19 -3 4 -6 -2 -5 -13z"/>
<path d="M2133 2930 c-6 -14 -8 -30 -6 -37 3 -6 0 -21 -7 -32 -16 -32 3 -25
22 7 13 21 15 37 9 58 l-9 29 -9 -25z"/>
<path d="M2246 2915 c-3 -8 -1 -15 3 -15 5 0 11 7 15 15 3 8 1 15 -3 15 -5 0
-11 -7 -15 -15z"/>
<path d="M3010 2919 c0 -5 5 -7 10 -4 6 3 10 8 10 11 0 2 -4 4 -10 4 -5 0 -10
-5 -10 -11z"/>
<path d="M3284 2914 c-18 -15 -18 -15 6 -10 14 3 28 6 33 6 4 0 7 5 7 10 0 15
-24 12 -46 -6z"/>
<path d="M3480 2910 c-10 -7 5 -10 49 -10 35 0 62 2 59 5 -10 10 -93 14 -108
5z"/>
<path d="M3655 2910 c27 -12 43 -12 25 0 -8 5 -22 9 -30 9 -10 0 -8 -3 5 -9z"/>
<path d="M2360 2900 c0 -5 5 -10 10 -10 6 0 10 5 10 10 0 6 -4 10 -10 10 -5 0
-10 -4 -10 -10z"/>
<path d="M780 2889 c0 -4 9 -13 20 -19 16 -8 20 -8 20 3 0 8 -9 17 -20 20 -11
3 -20 1 -20 -4z"/>
<path d="M2090 2875 c0 -14 -4 -25 -10 -25 -16 0 -11 -19 11 -41 26 -26 33
-20 19 17 -6 15 -9 39 -5 51 3 13 1 23 -5 23 -5 0 -10 -11 -10 -25z"/>
<path d="M2211 2869 c-6 -18 -9 -34 -7 -36 2 -2 9 10 15 28 6 18 9 34 7 36 -2
2 -9 -10 -15 -28z"/>
<path d="M2237 2855 c-4 -8 -2 -17 3 -20 6 -4 10 3 10 14 0 25 -6 27 -13 6z"/>
<path d="M2390 2816 c0 -20 5 -36 10 -36 6 0 10 13 10 29 0 17 -4 33 -10 36
-6 4 -10 -8 -10 -29z"/>
<path d="M800 2831 c0 -5 6 -11 13 -13 17 -7 38 2 31 13 -7 12 -44 12 -44 0z"/>
<path d="M2197 2801 c-3 -14 -1 -18 9 -14 8 3 14 11 14 19 0 21 -17 17 -23 -5z"/>
<path d="M2222 2774 c-7 -8 -8 -14 -3 -14 10 0 25 19 20 25 -2 1 -10 -3 -17
-11z"/>
<path d="M2321 2774 c0 -11 3 -14 6 -6 3 7 2 16 -1 19 -3 4 -6 -2 -5 -13z"/>
<path d="M2360 2740 c-13 -8 -12 -10 3 -10 9 0 17 5 17 10 0 12 -1 12 -20 0z"/>
<path d="M3748 2743 c7 -3 16 -2 19 1 4 3 -2 6 -13 5 -11 0 -14 -3 -6 -6z"/>
<path d="M2590 2385 c0 -8 5 -15 10 -15 6 0 10 7 10 15 0 8 -4 15 -10 15 -5 0
-10 -7 -10 -15z"/>
<path d="M830 2330 c0 -5 5 -10 10 -10 6 0 10 5 10 10 0 6 -4 10 -10 10 -5 0
-10 -4 -10 -10z"/>
<path d="M775 2320 c3 -5 8 -10 11 -10 2 0 4 5 4 10 0 6 -5 10 -11 10 -5 0 -7
-4 -4 -10z"/>
<path d="M4067 2296 c-16 -13 -15 -14 17 -13 28 1 33 4 24 14 -13 16 -18 16
-41 -1z"/>
<path d="M3985 2260 c-4 -7 3 -8 22 -4 38 9 42 14 10 14 -14 0 -29 -5 -32 -10z"/>
<path d="M3800 2210 c0 -5 4 -10 9 -10 6 0 13 5 16 10 3 6 -1 10 -9 10 -9 0
-16 -4 -16 -10z"/>
<path d="M1496 2201 c-4 -5 3 -7 14 -4 23 6 26 13 6 13 -8 0 -17 -4 -20 -9z"/>
<path d="M1200 2182 c0 -5 20 -9 45 -9 25 0 45 4 45 9 0 4 -20 8 -45 8 -25 0
-45 -4 -45 -8z"/>
<path d="M3465 2160 c3 -5 17 -10 30 -10 13 0 27 5 30 10 4 6 -8 10 -30 10
-22 0 -34 -4 -30 -10z"/>
<path d="M3645 2160 c3 -5 12 -10 20 -10 8 0 17 5 20 10 4 6 -5 10 -20 10 -15
0 -24 -4 -20 -10z"/>
<path d="M968 2153 c7 -3 16 -2 19 1 4 3 -2 6 -13 5 -11 0 -14 -3 -6 -6z"/>
<path d="M3405 2150 c-3 -5 3 -10 15 -10 12 0 18 5 15 10 -3 6 -10 10 -15 10
-5 0 -12 -4 -15 -10z"/>
<path d="M1018 2143 c7 -3 16 -2 19 1 4 3 -2 6 -13 5 -11 0 -14 -3 -6 -6z"/>
<path d="M958 2133 c6 -2 18 -2 25 0 6 3 1 5 -13 5 -14 0 -19 -2 -12 -5z"/>
<path d="M1033 2127 c-51 -12 -57 -25 -10 -21 29 3 30 3 7 -5 l-25 -9 25 0
c25 0 83 15 66 17 -5 1 -3 8 4 16 15 18 -1 18 -67 2z"/>
<path d="M1155 2130 c-3 -6 1 -7 9 -4 18 7 21 14 7 14 -6 0 -13 -4 -16 -10z"/>
<path d="M3170 2126 c0 -9 30 -14 35 -6 4 6 -3 10 -14 10 -12 0 -21 -2 -21 -4z"/>
<path d="M1124 2101 c3 -5 17 -8 32 -8 18 0 22 2 13 8 -18 11 -52 11 -45 0z"/>
<path d="M3236 2095 c21 -16 44 -19 44 -6 0 10 -24 21 -48 21 -13 0 -12 -3 4
-15z"/>
<path d="M3396 2101 c15 -14 54 -23 54 -13 0 5 -10 12 -22 16 -33 8 -44 8 -32
-3z"/>
<path d="M3347 2073 c-10 -3 -29 -11 -43 -18 -25 -12 -25 -13 -5 -20 22 -7
106 27 95 38 -8 7 -18 7 -47 0z"/>
<path d="M3260 2019 c0 -5 5 -7 10 -4 6 3 10 8 10 11 0 2 -4 4 -10 4 -5 0 -10
-5 -10 -11z"/>
<path d="M245 1920 c-8 -13 13 -40 31 -40 22 0 28 22 9 37 -23 16 -32 16 -40
3z"/>
<path d="M558 1903 c6 -2 18 -2 25 0 6 3 1 5 -13 5 -14 0 -19 -2 -12 -5z"/>
<path d="M3183 1838 c2 -28 16 -43 47 -52 24 -7 24 -6 -2 11 -32 20 -36 33
-10 33 15 1 15 2 -2 15 -27 21 -35 19 -33 -7z"/>
<path d="M3055 1803 c-40 -10 -35 -20 11 -27 49 -6 74 1 36 11 -12 3 -19 9
-16 14 5 9 1 10 -31 2z"/>
<path d="M1868 1693 c7 -3 16 -2 19 1 4 3 -2 6 -13 5 -11 0 -14 -3 -6 -6z"/>
<path d="M1038 1654 c-25 -14 -56 -26 -67 -27 -14 -1 -20 -6 -16 -15 2 -7 0
-10 -5 -7 -14 8 -50 -4 -50 -17 0 -5 7 -8 15 -4 8 3 15 2 15 -3 0 -5 -18 -8
-39 -7 -30 0 -45 -6 -66 -27 l-28 -27 44 14 c24 8 71 23 103 35 33 12 67 21
78 21 10 0 18 5 18 10 0 6 -4 10 -10 10 -5 0 -10 5 -10 11 0 5 5 7 10 4 6 -3
13 1 16 9 3 9 12 16 18 16 7 0 21 7 32 15 32 24 -5 17 -58 -11z"/>
<path d="M865 1618 c-33 -11 -98 -31 -145 -43 -47 -13 -111 -33 -142 -44 -32
-12 -65 -21 -75 -21 -44 -1 -177 -60 -135 -60 7 0 12 -4 12 -10 0 -5 -9 -10
-21 -10 -11 0 -17 5 -14 10 9 15 -35 12 -91 -6 -50 -17 -78 -34 -56 -34 14 0
16 -36 2 -45 -16 -10 -11 -33 12 -55 20 -19 21 -22 6 -36 -15 -15 -15 -19 0
-50 8 -19 21 -34 27 -34 14 0 95 52 95 61 0 4 -18 10 -40 14 -39 7 -47 25 -11
25 12 0 18 7 17 18 -1 14 8 17 49 19 33 2 43 0 30 -6 -18 -7 -17 -8 7 -14 29
-8 58 0 58 15 0 5 -10 6 -22 2 -21 -6 -21 -5 -9 10 10 12 23 15 41 11 32 -7
100 22 100 42 0 7 -4 13 -10 13 -5 0 -10 -4 -10 -9 0 -6 -12 -6 -27 -2 -16 4
-44 4 -63 0 -19 -3 -27 -7 -17 -8 32 -2 17 -21 -18 -21 -24 0 -37 6 -45 20 -7
12 -21 20 -38 20 l-26 0 23 16 c19 14 30 15 74 4 75 -17 217 -14 234 5 4 4 2
5 -4 1 -7 -4 -13 -3 -13 3 0 6 9 15 21 22 16 8 18 14 10 22 -9 9 -14 9 -20 -2
-6 -9 -11 -10 -15 -2 -4 6 -12 8 -18 5 -7 -4 -8 -2 -4 5 4 6 11 9 16 6 10 -6
100 27 100 37 0 4 -8 8 -17 8 -14 0 -14 3 -5 12 10 10 15 10 22 -1 7 -12 13
-12 36 4 27 17 27 19 9 27 -17 7 -16 8 5 4 16 -3 54 9 105 34 90 43 90 50 0
18z"/>
<path d="M968 1543 c7 -3 16 -2 19 1 4 3 -2 6 -13 5 -11 0 -14 -3 -6 -6z"/>
<path d="M2310 1530 c0 -5 5 -10 11 -10 5 0 7 5 4 10 -3 6 -8 10 -11 10 -2 0
-4 -4 -4 -10z"/>
<path d="M873 1517 c-51 -19 -51 -28 0 -11 26 9 47 18 47 20 0 6 -12 4 -47 -9z"/>
<path d="M888 1488 c-15 -5 -45 -18 -65 -28 l-38 -19 48 3 c37 3 47 0 43 -10
-4 -10 8 -9 47 6 29 11 52 20 53 20 0 0 1 7 1 15 0 10 -8 13 -26 9 -20 -4 -23
-3 -11 5 13 9 12 11 -5 10 -11 0 -32 -5 -47 -11z"/>
<path d="M790 1480 c-8 -5 -10 -10 -5 -10 6 0 17 5 25 10 8 5 11 10 5 10 -5 0
-17 -5 -25 -10z"/>
<path d="M2910 1433 c0 -12 69 -54 78 -49 4 2 48 -15 97 -39 50 -24 92 -41 95
-39 2 3 -2 9 -10 14 -12 8 -10 10 8 10 13 0 31 -4 40 -9 9 -4 31 -11 47 -15
27 -6 28 -5 12 8 -21 16 -9 30 13 15 19 -11 40 -12 40 0 0 4 -35 19 -77 33
-61 19 -79 22 -81 11 -4 -15 -42 -18 -42 -4 0 10 -54 31 -142 55 -63 18 -78
19 -78 9z"/>
<path d="M757 1418 c-3 -9 3 -14 18 -13 23 0 49 15 27 15 -5 0 -17 3 -25 6 -8
3 -17 -1 -20 -8z"/>
<path d="M700 1410 c-8 -5 -10 -10 -5 -10 6 0 17 5 25 10 8 5 11 10 5 10 -5 0
-17 -5 -25 -10z"/>
<path d="M1245 1360 c-7 -12 2 -12 30 0 19 8 19 9 -2 9 -12 1 -25 -3 -28 -9z"/>
<path d="M3090 1276 c0 -21 42 -54 122 -96 83 -43 121 -53 73 -17 -16 12 -51
41 -77 65 -47 44 -118 73 -118 48z"/>
<path d="M3360 1263 c44 -19 95 -35 86 -26 -9 10 -98 43 -111 42 -5 0 6 -8 25
-16z"/>
<path d="M650 1255 c-11 -13 -10 -14 4 -9 9 3 16 10 16 15 0 13 -6 11 -20 -6z"/>
<path d="M825 1259 c-11 -16 -2 -17 25 -2 24 12 24 13 3 13 -12 0 -25 -5 -28
-11z"/>
<path d="M674 1236 c-45 -12 -59 -29 -29 -34 21 -5 62 16 69 34 3 8 4 13 3 13
-1 -1 -21 -7 -43 -13z"/>
<path d="M3280 1230 c0 -5 9 -10 21 -10 11 0 17 5 14 10 -3 6 -13 10 -21 10
-8 0 -14 -4 -14 -10z"/>
<path d="M595 1200 c3 -5 8 -10 11 -10 2 0 4 5 4 10 0 6 -5 10 -11 10 -5 0 -7
-4 -4 -10z"/>
<path d="M3160 1182 c0 -5 10 -17 21 -28 22 -19 22 -19 10 3 -12 24 -31 39
-31 25z"/>
<path d="M295 470 c-3 -5 1 -10 9 -10 9 0 16 5 16 10 0 6 -4 10 -9 10 -6 0
-13 -4 -16 -10z"/>
<path d="M890 54 c0 -9 -5 -12 -12 -8 -9 5 -9 2 1 -9 18 -22 67 -22 75 0 8 19
-9 33 -41 33 -14 0 -23 -6 -23 -16z"/>
</g>
</svg>
